<svg width="46" height="46" viewBox="0 0 46 46" fill="none" xmlns="http://www.w3.org/2000/svg">
<path fill-rule="evenodd" clip-rule="evenodd" d="M31.7209 13.5589C31.7209 19.2916 31.7453 22.2299 31.7928 22.2299C31.8324 22.2299 31.8648 22.0901 31.8648 21.9192C31.8648 21.4646 32.0558 20.896 32.3032 20.6143C32.4222 20.4787 32.6347 20.3299 32.7754 20.2834C33.1623 20.1557 33.8072 20.2291 34.2313 20.4492L34.5974 20.6392L34.8069 20.3372C34.9221 20.1711 35.1087 19.9479 35.2214 19.8412C35.4724 19.6038 35.8866 19.4237 36.182 19.4237C36.663 19.4237 37.2364 19.8111 37.5664 20.3591C37.6498 20.4976 37.724 20.6198 37.7313 20.6307C37.7386 20.6416 37.9154 20.5619 38.1242 20.4536C38.6237 20.1945 39.2723 20.1442 39.6722 20.3336C39.827 20.407 40.0474 20.6007 40.162 20.764C40.317 20.9851 40.3942 21.2153 40.4636 21.6634C40.5149 21.9948 40.5615 22.2335 40.5671 22.1939C40.5726 22.1543 40.5753 18.2526 40.5732 13.5235L40.5692 4.925L36.145 4.90643L31.7209 4.88794V13.5589ZM4.88751 6.62217C3.47657 6.89905 2.22774 7.71608 1.45482 8.86806C1.09865 9.39894 0.876022 9.88657 0.657714 10.6137C0.537767 11.0135 0.527982 11.7111 0.506539 21.4384C0.48927 29.2431 0.504884 31.9602 0.569211 32.3353C0.67671 32.9622 0.937254 33.7351 1.18657 34.1666C1.48741 34.6872 2.03642 35.3311 2.48879 35.6939C3.05989 36.1517 3.60012 36.4422 4.31289 36.6749L4.91809 36.8725L17.9871 36.8914L31.0562 36.9103L31.0918 36.7475C31.1115 36.6579 31.2287 36.198 31.3522 35.7256C31.4759 35.2531 31.577 34.857 31.577 34.8454C31.577 34.8339 25.6596 34.8157 18.4274 34.8051L5.27786 34.7858L4.85197 34.6236C3.78072 34.2156 3.12206 33.5417 2.79553 32.5195C2.65429 32.0773 2.65155 31.8726 2.65155 21.7262C2.65155 11.5468 2.65385 11.3764 2.7969 10.9285C2.98117 10.3517 3.29583 9.86052 3.72107 9.48557C4.08106 9.16818 4.42197 8.97383 4.94551 8.78762C5.24822 8.67997 6.42337 8.6676 18.1036 8.64867L30.9294 8.62795V7.58592V6.54395L18.0676 6.55187C10.9937 6.55619 5.06265 6.58785 4.88751 6.62217ZM41.4922 7.83754L41.5138 8.91548L41.906 9.17588C42.7437 9.73186 43.2396 10.5434 43.3756 11.5807C43.4322 12.0121 43.4496 15.119 43.4346 22.1219L43.4133 32.0516L43.259 32.5011C43.0808 33.0205 42.7613 33.5426 42.4353 33.8472C42.0059 34.2484 41.3799 34.572 40.769 34.7084C40.6602 34.7327 40.5712 34.7946 40.5712 34.8461C40.5712 34.8975 40.6158 35.0992 40.6702 35.2944C40.7247 35.4896 40.8416 35.9129 40.9299 36.2351L41.0905 36.821L41.6043 36.6761C43.39 36.1727 44.7325 34.83 45.3288 32.951L45.5 32.4113V21.7262V11.0411L45.3277 10.5014C44.8467 8.99513 43.9398 7.86013 42.6938 7.2055C42.2601 6.97762 41.7023 6.75989 41.5515 6.75974C41.4943 6.7596 41.4769 7.07461 41.4922 7.83754ZM11.415 14.7143C10.4689 14.9438 9.51666 15.7328 9.08393 16.646C8.58248 17.7043 8.56507 18.746 9.02932 19.9114C9.29267 20.5726 9.77612 21.2873 10.2573 21.7271C10.4782 21.929 10.6301 22.12 10.5947 22.1516C10.5594 22.1832 10.3545 22.265 10.1393 22.3333C9.59624 22.5057 8.82734 22.9017 8.21178 23.3261C7.60557 23.744 6.78681 24.5805 6.41142 25.1655C6.05057 25.7279 5.74887 26.4944 5.69843 26.9767C5.66015 27.3429 5.6744 27.4004 5.8563 27.6166C6.39005 28.2509 8.4108 28.7182 11.0881 28.8264C11.7516 28.8532 12.2213 28.8451 12.2212 28.8069C12.2211 28.771 11.8493 28.3751 11.3949 27.9272C10.9406 27.4793 10.5493 27.0813 10.5255 27.0428C10.4891 26.9838 11.1962 25.1883 11.8295 23.7319C11.9263 23.5093 12.0055 23.284 12.0055 23.2312C12.0055 23.1785 11.8862 23.0132 11.7404 22.8639C11.5945 22.7145 11.4893 22.5792 11.5065 22.5632C11.5237 22.5473 11.7397 22.5673 11.9865 22.6077C12.2946 22.6581 12.5537 22.6576 12.8139 22.6059C13.0223 22.5645 13.2034 22.5411 13.2164 22.5538C13.2293 22.5665 13.1241 22.7051 12.9825 22.8618C12.8409 23.0185 12.7251 23.19 12.7251 23.243C12.7251 23.3321 13.0547 24.1537 13.3791 24.8734C13.4547 25.0412 13.5166 25.1976 13.5166 25.2211C13.5166 25.2648 13.8333 26.0231 14.1094 26.6402L14.2637 26.9851L13.3325 27.9257L12.4013 28.8663L13.5885 28.8227C16.2985 28.7231 18.3355 28.2569 18.8783 27.6119C19.1139 27.3319 19.1074 27.0218 18.8509 26.2953C18.6146 25.6256 18.1584 24.8844 17.6221 24.2983C16.896 23.5048 15.562 22.6389 14.5959 22.334C14.3782 22.2653 14.1752 22.1872 14.1447 22.1605C14.1143 22.1338 14.3271 21.8671 14.6177 21.568C15.0133 21.1606 15.2314 20.8547 15.486 20.3498C15.7144 19.8969 15.8647 19.4774 15.9438 19.072C16.0429 18.5643 16.0486 18.366 15.9799 17.8216C15.8694 16.9463 15.5593 16.2972 14.9702 15.7081C14.442 15.18 13.8908 14.8543 13.2821 14.7108C12.7298 14.5805 11.9607 14.5821 11.415 14.7143ZM19.6713 17.0129C19.0051 17.2507 18.8788 17.9655 19.4169 18.4524C19.5728 18.5936 19.679 18.5962 25.2346 18.5962H30.8934V17.7687V16.9413L25.4249 16.9262C20.8654 16.9136 19.909 16.928 19.6713 17.0129ZM35.8106 20.4248C35.7143 20.5005 35.54 20.7552 35.4231 20.9907C35.2235 21.393 35.1882 21.4254 34.8406 21.5248C34.4963 21.6234 34.459 21.6214 34.301 21.4961C33.9765 21.2388 33.5957 21.0786 33.3084 21.0786C33.0734 21.0786 32.9955 21.1151 32.8918 21.2738C32.7965 21.4196 32.7641 21.6155 32.7638 22.0473C32.7635 22.5909 32.7506 22.6393 32.548 22.8529C32.3412 23.071 32.3056 23.0813 31.6744 23.1048C31.1513 23.1243 30.9851 23.1574 30.8649 23.2664C30.5916 23.5138 30.6872 24.0062 31.1208 24.5856C31.2826 24.8017 31.2889 24.8412 31.2077 25.1253C31.1595 25.2939 31.092 25.4692 31.0577 25.5148C31.0233 25.5605 30.8193 25.6839 30.6043 25.7891C30.21 25.982 29.922 26.2868 29.922 26.5111C29.922 26.7651 30.1726 27.0408 30.6174 27.2759C31.0406 27.4997 31.0842 27.5455 31.1812 27.8685C31.2857 28.2165 31.285 28.2202 31.0668 28.5241C30.9461 28.6922 30.8041 28.9554 30.7513 29.1089C30.6746 29.332 30.6729 29.4316 30.743 29.6046C30.8115 29.7736 30.9006 29.8397 31.1498 29.9066C31.3255 29.9537 31.6415 29.9739 31.8525 29.9515C32.2227 29.9123 32.2458 29.9205 32.5201 30.1882C32.7867 30.4486 32.8012 30.4843 32.7579 30.7729C32.6943 31.1974 32.7833 31.7109 32.9493 31.8768C33.2015 32.1291 33.6556 32.0313 34.23 31.601L34.4727 31.4192L34.8555 31.5399C35.1297 31.6263 35.2521 31.7059 35.2865 31.8201C35.3818 32.1362 35.717 32.5893 35.9471 32.7133C36.1724 32.8346 36.1922 32.8343 36.4311 32.7056C36.6072 32.6108 36.7495 32.4369 36.9168 32.1124C37.1376 31.6837 37.1779 31.6454 37.5223 31.5361C37.8905 31.4194 37.8918 31.4196 38.1378 31.6072C38.438 31.8362 38.8525 32.0156 39.0813 32.0156C39.1745 32.0156 39.3294 31.932 39.4254 31.8298C39.5805 31.6646 39.6003 31.5769 39.6044 31.0376C39.6089 30.4472 39.6155 30.4243 39.8562 30.1734C40.0844 29.9355 40.1284 29.9186 40.4273 29.9526C40.8573 30.0015 41.4473 29.8865 41.5661 29.7305C41.7238 29.5237 41.6256 29.0337 41.3405 28.6043L41.0854 28.22L41.1887 27.8692C41.2843 27.5452 41.327 27.5 41.7488 27.2759C42.2024 27.0349 42.442 26.7639 42.442 26.4918C42.442 26.2622 42.187 26.0049 41.7429 25.7863C41.514 25.6736 41.3165 25.5754 41.3042 25.568C41.2918 25.5607 41.2366 25.384 41.1816 25.1755C41.0823 24.7992 41.0831 24.7944 41.2919 24.5309C41.55 24.205 41.6505 23.9518 41.6505 23.6272C41.6505 23.4244 41.6077 23.3529 41.4166 23.2364C41.2347 23.1255 41.054 23.0938 40.6026 23.0936C40.0509 23.0933 40.0122 23.0827 39.8136 22.8754C39.6158 22.6689 39.6047 22.6239 39.6023 22.0195C39.6002 21.4954 39.5753 21.3546 39.4627 21.2301C39.2136 20.9548 38.6682 21.048 38.1089 21.4615C37.9301 21.5937 37.8795 21.5986 37.5235 21.519C37.1534 21.4361 37.1267 21.4147 36.9928 21.0933C36.9152 20.9071 36.7629 20.6496 36.6544 20.521C36.5058 20.3449 36.3988 20.2871 36.2213 20.2871C36.0916 20.2871 35.9068 20.3491 35.8106 20.4248ZM19.5801 20.9692C19.3306 21.0779 19.0577 21.4548 19.0573 21.6914C19.0568 21.9399 19.3091 22.3208 19.5651 22.4582C19.7961 22.5821 20.1131 22.5896 25.0593 22.5896C30.2494 22.5896 30.3118 22.5879 30.6213 22.4381L30.9344 22.2866L30.9139 21.5926L30.8934 20.8987L25.353 20.8833C20.7229 20.8704 19.7743 20.8846 19.5801 20.9692ZM34.3832 32.3671C34.146 32.5401 33.5527 32.7351 33.2636 32.7351C33.0482 32.7351 33.0277 32.7575 32.9503 33.0769C32.8711 33.4037 32.8022 33.6632 32.2956 35.5413C32.1728 35.9964 31.9949 36.6602 31.9002 37.0164C31.8056 37.3725 31.6107 38.0937 31.4672 38.6188C31.3236 39.144 31.2168 39.604 31.2296 39.6411C31.2426 39.6782 31.6362 39.4481 32.1043 39.1296C32.5724 38.8112 32.9761 38.5714 33.0014 38.5967C33.0266 38.6219 33.2151 39.0519 33.4203 39.5521L33.7933 40.4616L33.9347 39.9622C34.0693 39.4873 34.3318 38.5144 34.7104 37.0883C35.0024 35.9883 35.3183 34.8166 35.5145 34.1062C35.6695 33.545 35.6844 33.4208 35.6003 33.3931C35.4443 33.3418 34.9665 32.8035 34.8088 32.5013C34.7314 32.3529 34.6444 32.2324 34.6156 32.2337C34.5866 32.235 34.4821 32.295 34.3832 32.3671ZM37.5202 32.5496C37.3289 32.8761 36.8458 33.382 36.7237 33.3838C36.683 33.3844 36.6082 33.4112 36.5576 33.4434C36.4859 33.4888 36.5541 33.8273 36.8656 34.9713C37.0857 35.7795 37.3467 36.7483 37.4457 37.1243C37.5447 37.5003 37.7052 38.0993 37.8025 38.4554C37.8997 38.8116 38.1043 39.5691 38.2572 40.1387C38.41 40.7084 38.5528 41.1455 38.5744 41.1101C38.5959 41.0747 38.751 40.5115 38.9189 39.8585C39.0868 39.2056 39.237 38.6567 39.2526 38.6388C39.2682 38.621 39.7007 39.0252 40.2138 39.5372C40.727 40.0492 41.1468 40.436 41.1468 40.3967C41.1468 40.3574 41.1128 40.2122 41.0712 40.0739C41.0297 39.9357 40.9197 39.5311 40.8269 39.175C40.7341 38.8188 40.4745 37.8474 40.2499 37.0164C39.7325 35.1018 39.4593 34.0772 39.2688 33.3359L39.118 32.7494L38.8192 32.7044C38.6549 32.6796 38.3356 32.5661 38.1097 32.452L37.6989 32.2447L37.5202 32.5496Z" fill="white"/>
</svg>
