<svg width="46" height="46" viewBox="0 0 46 46" fill="none" xmlns="http://www.w3.org/2000/svg">
<path fill-rule="evenodd" clip-rule="evenodd" d="M0.865063 4.83955C0.770602 4.89188 0.650406 5.01208 0.598071 5.10654C0.519857 5.24758 0.502388 7.97955 0.500231 20.3605C0.498003 33.7043 0.510295 35.4668 0.606769 35.6535C0.841268 36.1069 0.354155 36.0824 9.12199 36.0824H17.1064L17.0871 37.8616L17.0679 39.6409L12.4782 39.6768L7.88853 39.7128L7.716 39.9284C7.60199 40.071 7.54333 40.2371 7.54311 40.4184C7.54268 40.7352 7.63937 40.9549 7.85669 41.131C8.00089 41.2477 8.9064 41.2553 23.0111 41.2568L38.0122 41.2584L38.2334 41.0372C38.4198 40.8507 38.4546 40.761 38.4546 40.4661C38.4546 40.1999 38.4132 40.0679 38.2812 39.9145L38.1077 39.7128L33.5186 39.6768L28.9295 39.6409L28.9103 37.8616L28.891 36.0824H36.8754C45.6432 36.0824 45.1561 36.1069 45.3906 35.6535C45.4871 35.4669 45.4997 33.7025 45.4997 20.3749C45.4997 3.9825 45.5258 5.01625 45.1063 4.8251C44.9615 4.7591 39.8394 4.73977 22.9773 4.74171C4.90367 4.74386 1.00661 4.76105 0.865063 4.83955ZM43.9004 20.3928L43.9185 34.429H22.9989H2.07925V20.4228C2.07925 12.7193 2.10089 6.39499 2.12727 6.36854C2.15373 6.34208 11.5594 6.32864 23.0287 6.33856L43.8822 6.35667L43.9004 20.3928ZM19.7637 8.33669C18.8576 8.40707 18.287 8.51684 17.4633 8.7793C15.1231 9.525 13.4472 11.0359 12.8146 12.9704C12.6682 13.4177 12.6189 13.7383 12.5925 14.4137C12.5641 15.1357 12.5838 15.3838 12.7097 15.8874C12.9008 16.6519 13.3256 17.5141 13.7949 18.0901C14.2381 18.6337 15.005 19.2896 15.5885 19.6238C15.8775 19.7893 16.022 19.9174 16.0234 20.0094C16.0281 20.3093 15.1476 21.5448 14.2163 22.5452C13.9041 22.8804 13.8689 22.9523 13.8689 23.2533C13.8689 23.5409 13.9048 23.6242 14.123 23.8423L14.3771 24.0964L15.0395 24.0594C15.7908 24.0175 16.6726 23.8088 17.4633 23.4859C18.3942 23.1057 19.1044 22.6456 19.768 21.9923C20.1096 21.6563 20.4505 21.2952 20.5257 21.1899C20.6541 21.0099 20.7152 20.9935 21.5406 20.9163C22.0236 20.8712 22.7513 20.7537 23.1576 20.6553C24.7268 20.2754 26.2538 19.4276 27.1475 18.4401C27.549 17.9965 28.0512 17.2359 28.2526 16.7667C28.4975 16.1956 28.6768 15.3127 28.6774 14.6747C28.6779 13.9962 28.5206 13.1387 28.2986 12.6109C28.0882 12.1107 27.6532 11.401 27.2926 10.97C26.5732 10.11 25.1153 9.19805 23.7895 8.77873C22.5865 8.39837 21.0882 8.23382 19.7637 8.33669ZM30.5469 8.53057C30.3913 8.60886 30.2429 8.76449 30.1579 8.93861C30.0331 9.19431 30.0298 9.24694 30.1219 9.51141C30.1858 9.69444 30.3142 9.86352 30.4677 9.96668L30.712 10.1308L35.464 10.1307C39.844 10.1306 40.2356 10.1207 40.4675 10.0049C40.6203 9.92858 40.7711 9.7728 40.8514 9.60846C40.9692 9.36728 40.9732 9.30524 40.8873 9.03975C40.8339 8.87448 40.7006 8.67492 40.5881 8.5916C40.3876 8.4433 40.326 8.44121 35.5918 8.42274C31.1379 8.40541 30.7807 8.41303 30.5469 8.53057ZM22.0324 10.0932C22.9422 10.2408 23.567 10.4462 24.3951 10.8702C25.5727 11.4729 26.4595 12.4326 26.8167 13.4904C27.0437 14.1626 27.0444 15.0829 26.8185 15.7517C26.7292 16.0163 26.5336 16.4207 26.3838 16.6503C25.8923 17.4043 24.9518 18.1779 24.0326 18.5845C23.1115 18.9918 21.8863 19.2606 20.9505 19.2606C20.1745 19.2606 19.7852 19.3315 19.6161 19.5039C19.5339 19.5875 19.3346 19.8615 19.173 20.1127C18.8444 20.6237 18.1733 21.2151 17.5379 21.5537C17.3079 21.6764 17.1039 21.7767 17.0845 21.7767C17.0651 21.7767 17.1929 21.4937 17.3684 21.1477C17.862 20.1749 17.9506 19.3182 17.6031 18.8766C17.524 18.7759 17.2185 18.5778 16.9244 18.4363C16.2831 18.1278 15.441 17.4648 15.0814 16.9851C14.1561 15.7507 13.9826 14.3849 14.587 13.0934C14.8342 12.5649 15.3244 11.9238 15.7496 11.5725C16.6135 10.8587 17.9304 10.2921 19.1773 10.0979C20.018 9.96697 21.2414 9.96495 22.0324 10.0932ZM4.02864 13.9143C3.79702 14.0766 3.64555 14.4693 3.70083 14.7643C3.72571 14.8968 3.84217 15.0972 3.9597 15.2098L4.17335 15.4146L7.20596 15.4368C9.93972 15.4568 10.2612 15.447 10.4684 15.3376C10.769 15.1789 10.9503 14.7999 10.887 14.4622C10.8606 14.3217 10.7469 14.1146 10.6342 14.002L10.4293 13.7971H7.31264C4.5476 13.7971 4.17709 13.8103 4.02864 13.9143ZM30.3821 15.7392C30.1584 15.9152 30.0163 16.3123 30.0775 16.5909C30.1023 16.7038 30.2202 16.8897 30.3395 17.004L30.5564 17.2118H35.5044C40.3508 17.2118 40.4557 17.2088 40.6137 17.068C40.7024 16.9889 40.8199 16.8179 40.8749 16.6879C41.0116 16.3649 40.8956 15.9405 40.6164 15.7417C40.4125 15.5965 40.3344 15.5943 35.4878 15.5943C30.6625 15.5943 30.5628 15.5971 30.3821 15.7392ZM28.9161 18.7538C28.7901 18.8306 28.6526 18.9577 28.6106 19.0364C28.5685 19.1149 28.5341 19.314 28.5341 19.4787C28.5341 19.7234 28.5788 19.8229 28.7785 20.0226L29.0229 20.267H34.7165H40.41L40.6544 20.0226C40.8579 19.8191 40.8988 19.7255 40.8988 19.4635C40.8988 19.2904 40.8484 19.0767 40.7866 18.9886C40.5159 18.602 40.7032 18.6136 34.7021 18.6139C29.3265 18.6141 29.1377 18.6187 28.9161 18.7538ZM8.13741 20.586C7.06117 20.8467 6.18327 21.558 5.6779 22.5785C5.44218 23.0546 5.36375 23.3138 5.29826 23.8336C5.22853 24.3875 5.23399 24.5812 5.3337 25.0872C5.39854 25.4164 5.5531 25.892 5.67725 26.1441C6.11117 27.0255 7.00302 27.7818 7.94159 28.0643C8.89317 28.3507 9.90873 28.2631 10.8224 27.8158C11.2699 27.5967 11.5113 27.4176 11.8568 27.0482C12.3917 26.4764 12.6843 25.8928 12.845 25.077C12.9426 24.5818 12.9479 24.3851 12.8784 23.8336C12.8129 23.3138 12.7345 23.0546 12.4988 22.5785C12.1105 21.7944 11.5568 21.232 10.8368 20.8902C10.5473 20.7528 10.139 20.6049 9.92951 20.5615C9.43621 20.4595 8.61338 20.4707 8.13741 20.586ZM23.6744 21.9492C23.4857 22.1379 23.43 22.2534 23.43 22.456C23.43 22.6003 23.4791 22.8132 23.5391 22.9293C23.7737 23.383 23.2755 23.3582 32.1644 23.3582C40.9253 23.3582 40.5114 23.3762 40.7866 22.9832C40.8484 22.8951 40.8988 22.6814 40.8988 22.5083C40.8988 22.2463 40.8579 22.1527 40.6544 21.9492L40.41 21.7048H32.1644H23.9189L23.6744 21.9492ZM32.9491 24.7531C32.8272 24.8069 32.6573 24.94 32.5717 25.0488C32.4172 25.2453 32.416 25.2707 32.416 28.5834C32.416 32.2749 32.4099 32.2226 32.873 32.4424C33.0918 32.5462 33.5326 32.5599 36.6526 32.5599C40.5292 32.5599 40.5701 32.5557 40.7863 32.1378C40.8837 31.9494 40.8988 31.4743 40.8988 28.613C40.8988 26.267 40.8748 25.253 40.8159 25.1239C40.7702 25.0237 40.649 24.8847 40.5463 24.815C40.375 24.6986 40.0646 24.6868 36.7653 24.6716C33.8611 24.6583 33.1283 24.6739 32.9491 24.7531ZM19.8181 24.8495C19.7095 24.9172 19.5686 25.0827 19.5046 25.2172C19.3425 25.5589 19.4144 25.9309 19.6905 26.1798L19.9098 26.3775H25.115H30.3202L30.5414 26.1563C30.7283 25.9694 30.7626 25.8804 30.7626 25.5824C30.7626 25.2942 30.7242 25.1866 30.5528 24.9948L30.3431 24.76L25.1792 24.7432C20.4112 24.7276 20.0002 24.7357 19.8181 24.8495ZM39.2454 28.606V30.8346H36.6574H34.0695V28.606V26.3775H36.6574H39.2454V28.606ZM19.7472 27.9663C19.6351 28.0499 19.5186 28.2327 19.4755 28.3927C19.4177 28.6076 19.4234 28.7276 19.5001 28.9089C19.5551 29.0389 19.6727 29.2099 19.7614 29.289C19.9189 29.4295 20.0401 29.4333 25.0371 29.4545C29.7146 29.4743 30.1712 29.4658 30.3814 29.3553C30.682 29.1973 30.8633 28.8182 30.8 28.4804C30.7736 28.3399 30.6599 28.1328 30.5472 28.0202L30.3424 27.8153L25.1429 27.8176C20.0258 27.8198 19.9404 27.8222 19.7472 27.9663ZM5.81744 28.1834C4.93903 28.7139 4.02153 29.8435 3.60573 30.9065C3.39588 31.4429 3.24593 32.067 3.18691 32.6498L3.13773 33.135H9.04248H14.9472L14.9456 32.7935C14.9434 32.2917 14.7019 31.284 14.4517 30.7322C14.3314 30.4669 14.0854 30.0279 13.9051 29.7566C13.5507 29.2234 12.6812 28.3651 12.2726 28.1452L12.0193 28.0087L11.776 28.1913C11.4428 28.4413 11.0394 28.6369 10.4491 28.8346C10.0321 28.9743 9.80478 29.0011 9.0524 28.9996C8.25761 28.9979 8.08738 28.9745 7.57869 28.7973C7.26239 28.6872 6.79957 28.4697 6.55012 28.314C6.30074 28.1583 6.09047 28.0311 6.08285 28.0312C6.0753 28.0314 5.95582 28.0999 5.81744 28.1834ZM19.9144 30.9247C19.6367 31.0687 19.4435 31.3856 19.4435 31.6972C19.4435 32.0483 19.6568 32.3506 19.9862 32.466C20.1666 32.5292 21.5167 32.5518 25.1194 32.5518C28.7221 32.5518 30.0722 32.5292 30.2526 32.466C30.5963 32.3455 30.7986 32.046 30.7986 31.6574C30.7986 31.3954 30.7579 31.2998 30.5636 31.1055L30.3286 30.8705L25.2079 30.8528C21.2322 30.8391 20.0486 30.8552 19.9144 30.9247Z" fill="white"/>
</svg>
