<svg width="32" height="32" viewBox="0 0 32 32" fill="none" xmlns="http://www.w3.org/2000/svg">
<path d="M14.1788 8.84781C14.9847 7.16854 16.7252 6 18.75 6C21.5535 6 23.8 8.23426 23.8 10.9583C23.8 11.1591 23.7879 11.3566 23.7645 11.5503C23.7074 12.0222 23.9904 12.4691 24.4414 12.6192C25.3571 12.924 26 13.7708 26 14.75C26 15.9783 24.9847 17 23.7 17H21.5C20.9477 17 20.5 17.4477 20.5 18C20.5 18.5523 20.9477 19 21.5 19H23.7C26.0604 19 28 17.1115 28 14.75C28 13.1494 27.1072 11.7653 25.7995 11.0406C25.7998 11.0132 25.8 10.9858 25.8 10.9583C25.8 7.10101 22.6292 4 18.75 4C16.2251 4 14.0054 5.31127 12.7598 7.28761C12.5598 7.26277 12.3562 7.25 12.15 7.25C10.0006 7.25 8.16543 8.63479 7.53399 10.5674C5.53413 10.9237 4 12.6498 4 14.75C4 17.1115 5.93962 19 8.3 19H10.5C11.0523 19 11.5 18.5523 11.5 18C11.5 17.4477 11.0523 17 10.5 17H8.3C7.0153 17 6 15.9783 6 14.75C6 13.5217 7.0153 12.5 8.3 12.5H8.33899C8.83575 12.5 9.25721 12.1353 9.32861 11.6437C9.52346 10.3021 10.7028 9.25 12.15 9.25C12.4436 9.25 12.725 9.29318 12.9889 9.37264C13.4607 9.51469 13.9656 9.29197 14.1788 8.84781Z" fill="white"/>
<path d="M16 14.95C16.5523 14.95 17 15.3977 17 15.95V24.5358L18.5929 22.9429C18.9834 22.5524 19.6166 22.5524 20.0071 22.9429C20.3976 23.3334 20.3976 23.9666 20.0071 24.3571L16.7071 27.6571C16.3166 28.0476 15.6834 28.0476 15.2929 27.6571L11.9929 24.3571C11.6024 23.9666 11.6024 23.3334 11.9929 22.9429C12.3834 22.5524 13.0166 22.5524 13.4071 22.9429L15 24.5358V15.95C15 15.3977 15.4477 14.95 16 14.95Z" fill="white"/>
</svg>
