<svg width="226" height="226" viewBox="0 0 226 226" fill="none" xmlns="http://www.w3.org/2000/svg">
<path d="M34.8381 138.161L30.9673 139.203L29.6273 134.736L33.4982 133.545L32.9027 131.312L22.9277 134.141L23.5232 136.523L27.6919 135.332L29.0318 139.798L24.8632 140.989L25.6076 143.371L35.5825 140.394L34.8381 138.161Z" fill="white"/>
<path d="M31.8608 157.664L39.3048 149.029L38.2626 146.945L26.9478 147.243L27.9899 149.476L30.372 149.327L32.4563 153.644L30.8186 155.431L31.8608 157.664ZM32.3074 149.029L36.625 148.88L33.7962 152.007L32.3074 149.029Z" fill="white"/>
<path d="M47.7904 162.875L43.324 156.324L40.6442 158.111C39.3043 159.004 38.1132 159.599 37.2199 159.897C36.3267 160.195 35.7311 160.046 35.2845 159.599L34.9867 159.302L31.5625 161.684L32.7535 163.47L34.5401 162.279L38.7087 168.383L36.9222 169.574L38.1132 171.361L41.5375 168.979L40.6442 167.788L47.7904 162.875ZM36.7733 161.833C37.2199 161.833 37.9643 161.684 38.7087 161.386C39.4532 161.088 40.3464 160.493 41.3886 159.897L42.7285 159.004L44.8128 161.981L39.4532 165.703L36.7733 161.833Z" fill="white"/>
<path d="M51.2154 166.895L48.0889 169.723C47.0467 170.617 46.1535 171.361 45.4091 171.659C44.8135 171.956 44.218 171.956 43.7714 171.51C43.6225 171.361 43.6225 171.212 43.4736 171.212L41.8359 172.552C42.1337 172.999 42.2826 173.296 42.5803 173.594C43.1759 174.19 43.7714 174.487 44.3669 174.487C44.9624 174.487 45.7068 174.19 46.6001 173.743C47.3445 173.296 48.3866 172.552 49.4288 171.51L51.0665 170.021L53.4486 172.552L47.3445 178.358L48.9822 180.145L56.5751 172.999L51.2154 166.895Z" fill="white"/>
<path d="M61.1898 184.314L62.3809 182.825L58.6589 179.847L59.9988 178.061L64.3163 181.485L65.5074 179.996L59.4033 175.083L52.8525 183.271L59.2544 188.184L60.4454 186.696L55.979 183.271L57.4678 181.336L61.1898 184.314Z" fill="white"/>
<path d="M80.5441 188.631L78.3109 187.44L74.1423 189.971L72.8024 189.227L74.8867 185.653L72.8024 184.462L70.718 188.184L69.3781 187.44V182.527L67.1449 181.336L67.2938 187.142L61.9341 190.418L64.3162 191.758L68.4848 189.227L69.8248 189.971L67.7404 193.544L69.8248 194.735L71.9091 191.013L73.249 191.758V196.522L75.6311 197.862L75.4822 191.609L80.5441 188.631Z" fill="white"/>
<path d="M85.7544 190.269L78.0127 198.606L80.3948 199.35L82.0324 197.564L86.6477 199.052L86.7966 201.435L89.1787 202.179L88.1365 190.864L85.7544 190.269ZM83.2235 196.224L86.0522 192.948L86.35 197.266L83.2235 196.224Z" fill="white"/>
<path d="M108.087 195.033L105.705 194.735L104.514 203.073L101.387 202.626L102.578 194.289L100.196 193.991L99.005 202.328L95.7296 201.882L96.9207 193.544L94.5386 193.247L93.0498 203.519L105.853 205.306L105.556 207.39L107.789 207.688L108.384 203.668L106.896 203.37L108.087 195.033Z" fill="white"/>
<path d="M119.402 194.735L114.787 201.733L114.489 195.033H112.107L112.554 205.455L114.787 205.306L119.402 198.457L119.849 205.157L122.082 205.008L121.635 194.586L119.402 194.735Z" fill="white"/>
<path d="M133.993 192.353L131.164 192.949L129.675 196.522L126.995 193.842L124.315 194.289L128.633 198.606L126.102 204.561L128.782 203.966L130.419 200.244L133.546 203.073L136.226 202.477L131.611 198.011L133.993 192.353Z" fill="white"/>
<path d="M141.733 189.971L145.902 199.499L148.135 198.457L144.711 190.715L149.029 188.78L152.453 196.522L154.686 195.628L150.368 186.1L141.733 189.971Z" fill="white"/>
<path d="M161.684 181.336C161.088 181.038 160.344 181.038 159.599 181.038C158.855 181.187 158.11 181.485 157.366 181.931L153.644 184.313L159.302 193.097L161.386 191.757L159.897 189.375L161.684 188.184C162.428 187.738 163.023 187.142 163.47 186.547C163.917 185.951 164.066 185.207 164.066 184.611C164.066 183.867 163.917 183.271 163.47 182.676C162.726 182.08 162.279 181.634 161.684 181.336ZM161.386 185.356C161.237 185.802 160.79 186.249 160.195 186.696L158.557 187.738L156.622 184.76L158.259 183.718C158.855 183.271 159.45 183.122 159.897 183.271C160.344 183.271 160.79 183.569 161.088 184.165C161.386 184.462 161.535 184.909 161.386 185.356Z" fill="white"/>
<path d="M165.405 175.977L168.681 186.845L170.616 185.207L169.872 182.974L173.594 179.847L175.678 180.89L177.613 179.252L167.341 174.339L165.405 175.977ZM171.658 178.954L169.127 181.038L167.787 176.87L171.658 178.954Z" fill="white"/>
<path d="M178.507 162.577L176.721 164.512L178.21 169.277L177.019 170.616L173.892 167.937L172.254 169.723L180.145 176.572L181.783 174.636L178.507 171.956L179.698 170.765L184.611 171.361L186.398 169.277L179.996 168.383L178.507 162.577Z" fill="white"/>
<path d="M185.654 155.282L184.016 154.091L179.103 161.684L180.741 162.726L182.527 160.046L189.525 164.662L190.865 162.726L183.867 157.962L185.654 155.282Z" fill="white"/>
<path d="M188.334 145.307L192.354 152.751L186.25 149.923L185.208 152.007L194.587 156.473L195.629 154.389L191.609 146.945L197.713 149.923L198.756 147.689L189.376 143.372L188.334 145.307Z" fill="white"/>
<path d="M193.097 131.014L192.502 133.396L195.628 137.267L195.182 138.905L191.162 137.714L190.566 139.947L200.541 142.925L201.137 140.543L197.117 139.501L197.564 137.863L202.328 136.374L203.221 133.843L196.968 135.63L193.097 131.014Z" fill="white"/>
<path d="M35.4334 91.1146L33.6468 90.8169L32.4558 96.3254L30.0737 95.7299L31.1159 91.1146L29.1804 90.668L28.2871 95.4322L26.0539 94.9855L27.0961 89.6258L25.3095 89.1792L23.6719 96.921L33.7957 99.0053L35.4334 91.1146Z" fill="white"/>
<path d="M37.8158 83.9685C38.2625 82.7774 38.4114 81.7353 38.1136 80.842C37.8158 79.9487 37.3692 79.5021 36.4759 79.0554C35.8804 78.9065 35.2849 78.7577 34.8382 79.0554C34.3916 79.2043 33.9449 79.6509 33.4983 80.0976C33.4983 79.6509 33.3494 79.2043 33.0517 78.7577C32.7539 78.311 32.4562 78.1621 31.8606 77.8644C31.1162 77.5666 30.3718 77.7155 29.6274 78.1621C29.0319 78.6088 28.4364 79.5021 27.9897 80.5442L26.3521 85.1595L36.1781 88.7326L37.8158 83.9685ZM32.0095 82.3308L31.2651 84.4151L28.883 83.5218L29.6274 81.4375C29.7763 80.9909 30.0741 80.6931 30.3718 80.3953C30.6696 80.2465 30.9673 80.2465 31.414 80.3953C31.8606 80.5442 32.0095 80.842 32.1584 81.1397C32.1584 81.4375 32.1584 81.8841 32.0095 82.3308ZM32.7539 85.0106L33.6472 82.4797C34.0938 81.4375 34.6893 80.9909 35.4337 81.2886C36.327 81.5864 36.4759 82.3308 36.1781 83.3729L35.2849 85.9039L32.7539 85.0106Z" fill="white"/>
<path d="M41.3889 75.7798L38.858 74.4399L39.9001 72.6534C40.3468 71.909 40.6445 71.0157 40.6445 70.2713C40.6445 69.5269 40.4956 68.9314 40.1979 68.3358C39.9001 67.7403 39.3046 67.2937 38.7091 66.847C37.9647 66.5493 37.3692 66.4004 36.6248 66.4004C35.8804 66.4004 35.2848 66.6982 34.6893 67.1448C34.0938 67.5914 33.6472 68.187 33.2005 69.0802L31.1162 73.1L40.3468 78.013L41.3889 75.7798ZM38.1136 71.909L37.2203 73.6955L34.0938 72.0578L34.9871 70.2713C35.2848 69.6758 35.7315 69.2291 36.1781 69.0802C36.6248 68.9314 37.0714 68.9314 37.6669 69.2291C38.1136 69.5269 38.4113 69.8246 38.5602 70.4202C38.5602 70.7179 38.4113 71.1646 38.1136 71.909Z" fill="white"/>
<path d="M46.1526 67.5917L44.9616 65.5074L47.7903 61.6365L50.1724 62.232L51.6612 60.1477L40.4952 57.7656L39.1553 59.7011L44.8127 69.5272L46.1526 67.5917ZM41.5374 60.1477L45.706 61.1899L43.7706 63.8697L41.5374 60.1477Z" fill="white"/>
<path d="M47.7897 51.8104C48.0875 51.3638 48.3853 51.066 48.683 50.6194C49.1297 50.1727 49.5763 49.875 50.0229 49.7261C50.4696 49.5772 50.7673 49.7261 51.0651 50.0238C51.3629 50.3216 51.3629 50.6194 51.3629 50.9171C51.3629 51.2149 51.0651 51.6615 50.7673 51.9593L49.1297 53.597L50.4696 54.788L52.2561 53.0014C52.7028 52.5548 53.0006 52.4059 53.4472 52.257C53.745 52.1082 54.1916 52.257 54.3405 52.5548C54.6382 52.8526 54.7871 53.2992 54.6382 53.7458C54.4893 54.1925 54.1916 54.788 53.745 55.2346C53.4472 55.6813 53.0005 55.979 52.405 56.2768C51.9584 56.5746 51.3629 56.7234 50.9162 56.8723L51.6606 58.6589C52.405 58.51 53.0005 58.2122 53.5961 57.7656C54.1916 57.319 54.7871 56.8723 55.2338 56.4257C55.8293 55.8302 56.2759 55.2346 56.5737 54.4902C56.8714 53.7458 57.0203 53.1503 57.0203 52.5548C57.0203 51.9593 56.7225 51.3638 56.2759 50.9171C55.8293 50.4705 55.3826 50.3216 54.7871 50.1727C54.1916 50.1727 53.5961 50.1727 53.1494 50.4705C53.2983 50.0238 53.2983 49.5772 53.2983 49.1306C53.1494 48.6839 53.0005 48.2373 52.5539 47.9395C52.1073 47.4929 51.6606 47.344 50.9162 47.344C50.3207 47.344 49.7252 47.4929 48.9808 47.7906C48.3853 48.0884 47.7897 48.535 47.1942 49.1306C46.3009 50.0238 45.7054 51.066 45.2588 52.257L47.0453 53.0014C47.3431 52.7037 47.6409 52.257 47.7897 51.8104Z" fill="white"/>
<path d="M61.934 50.1726L61.6363 41.8353L65.8049 47.0461L67.5915 45.7062L61.3385 37.3689L59.5519 38.8577L59.7008 47.195L55.5322 41.8353L53.7456 43.3241L59.9986 51.5125L61.934 50.1726Z" fill="white"/>
<path d="M69.0804 32.009C69.9737 31.5624 70.4204 30.9668 70.7181 30.5202C71.0159 29.9247 70.867 29.3292 70.5692 28.7336L69.0804 29.478C69.2293 29.7758 69.2293 30.0736 69.2293 30.3713C69.0804 30.6691 68.9315 30.818 68.6338 31.1157C67.8894 31.5624 67.4428 31.4135 66.9961 30.818L65.5073 31.5624C66.2517 32.6045 67.4428 32.9023 69.0804 32.009Z" fill="white"/>
<path d="M72.2069 42.877L73.249 34.5397L76.5244 40.4949L78.6087 39.3039L73.6957 30.2222L71.6113 31.2643L70.5692 39.6016L67.2938 33.6464L65.2095 34.8375L70.2714 43.9191L72.2069 42.877Z" fill="white"/>
<path d="M80.6924 35.7316C81.4368 36.3271 82.3301 36.6249 83.2234 36.7738C84.1167 36.9226 85.1588 36.7738 86.201 36.476C87.0943 36.1782 87.6898 35.7316 88.2853 35.1361C88.8808 34.5406 89.3274 33.945 89.4763 33.2006L87.5409 32.4562C87.0942 33.4984 86.4987 34.0939 85.4566 34.5406C84.8611 34.6894 84.2655 34.8383 83.67 34.6894C83.0745 34.5406 82.6278 34.3917 82.1812 33.945C81.7346 33.4984 81.4368 33.0518 81.1391 32.4562C80.8413 31.8607 80.8413 31.2652 80.9902 30.6697C81.1391 30.0742 81.2879 29.6275 81.7346 29.1809C82.1812 28.7342 82.6279 28.4365 83.2234 28.1387C84.2655 27.841 85.1588 27.841 86.0521 28.4365L86.9454 26.501C86.3499 26.0544 85.6055 25.9055 84.7122 25.9055C83.9678 25.9055 83.0745 26.0544 82.3301 26.3522C81.2879 26.6499 80.5435 27.2454 79.7991 27.9898C79.2036 28.7342 78.757 29.4786 78.6081 30.5208C78.4592 31.4141 78.4592 32.4562 78.9059 33.3495C79.3525 34.3917 79.948 35.1361 80.6924 35.7316Z" fill="white"/>
<path d="M94.5391 33.9449L93.6458 29.7763L95.2835 29.4785L98.7077 33.0516L101.388 32.4561L96.9212 27.8408L99.1544 22.3323L96.6234 22.7789L94.8369 27.5431L93.1992 27.8408L92.3059 23.6722L89.9238 24.2677L92.157 34.3916L94.5391 33.9449Z" fill="white"/>
<path d="M104.96 29.9249L109.724 29.6272L110.766 31.8604L113.297 31.7115L107.938 21.5876L105.555 21.7365L101.685 32.4559L104.216 32.307L104.96 29.9249ZM107.044 23.9697L108.98 27.8406L105.704 27.9895L107.044 23.9697Z" fill="white"/>
<path d="M116.573 31.8606L118.657 29.1807L120.89 29.3296L120.741 32.0095L123.123 32.1583L123.868 21.7367L119.401 21.439C118.508 21.439 117.615 21.439 117.019 21.7367C116.424 22.0345 115.828 22.3322 115.381 22.9278C114.935 23.5233 114.786 24.1188 114.637 25.0121C114.637 25.7565 114.786 26.5009 115.084 27.0964C115.381 27.6919 115.977 28.1386 116.573 28.5852L114.19 31.5628L116.573 31.8606ZM117.615 23.9699C118.061 23.6722 118.508 23.5233 119.252 23.6722L121.337 23.821L121.039 27.543L118.955 27.3942C118.21 27.3942 117.764 27.0964 117.466 26.7986C117.168 26.5009 117.019 25.9054 117.019 25.3098C117.019 24.7143 117.168 24.2677 117.615 23.9699Z" fill="white"/>
<path d="M133.694 32.1581L138.309 33.498L138.607 35.8801L140.989 36.6245L139.5 25.3096L137.267 24.7141L129.972 33.3492L132.354 34.0936L133.694 32.1581ZM137.565 27.2451L138.012 31.5626L134.885 30.6693L137.565 27.2451Z" fill="white"/>
<path d="M146.498 34.5399L148.136 35.2843L148.732 40.1974L151.262 41.3884L150.369 34.9866L155.58 31.8601L153.198 30.8179L149.029 33.4978L147.392 32.7534L149.178 28.8825L146.945 27.8403L142.627 37.3687L144.861 38.4108L146.498 34.5399Z" fill="white"/>
<path d="M153.645 42.7289L155.58 41.3889L159.6 44.0688L159.153 46.4509L161.238 47.7908L163.024 36.4759L161.089 35.136L151.561 41.3889L153.645 42.7289ZM160.791 37.8158L160.047 41.9845L157.218 40.1979L160.791 37.8158Z" fill="white"/>
<path d="M162.28 51.3636L163.769 49.7259L169.277 54.6389L167.788 56.2766L169.426 57.7654L172.106 54.6389L171.064 53.5968L176.721 47.3438L170.766 41.9841L168.533 44.3662C167.342 45.5573 166.448 46.4505 165.555 46.8972C164.811 47.3438 164.066 47.4927 163.62 47.0461L163.322 46.7483L160.493 49.7259L162.28 51.3636ZM167.639 48.2371C168.384 47.7905 169.128 47.0461 170.021 46.1528L171.064 45.1106L173.743 47.4927L169.426 52.2569L166.002 49.1304C166.3 48.9815 166.895 48.6837 167.639 48.2371Z" fill="white"/>
<path d="M177.316 64.0183L178.805 62.8272L175.232 58.3608L177.019 56.872L180.145 60.594L181.634 59.403L178.507 55.681L180.145 54.1922L183.718 58.3608L185.207 57.1698L180.145 51.2146L172.105 57.7653L177.316 64.0183Z" fill="white"/>
<path d="M179.997 67.8891L185.208 64.7626L182.528 69.9734L182.974 70.8667H188.93L183.719 73.9932L184.761 75.9286L193.694 70.569L192.652 68.9313H185.208L188.781 62.2317L187.738 60.594L178.806 65.9537L179.997 67.8891Z" fill="white"/>
<path d="M186.845 80.8417L195.033 83.0749L188.632 85.457L189.525 87.6902L199.202 83.9682L198.458 81.8839L190.269 79.6507L196.671 77.2686L195.778 75.0354L186.101 78.7574L186.845 80.8417Z" fill="white"/>
<path d="M196.521 88.7328C195.777 88.8817 195.032 89.1794 194.586 89.775C194.139 90.2216 193.841 90.8171 193.692 91.5615L190.119 90.0727L190.715 92.6037L193.841 93.7947L194.288 95.8791L191.608 96.4746L192.055 98.8567L202.178 96.6235L201.285 92.3059C201.136 91.4126 200.838 90.6682 200.392 90.0727C199.945 89.4772 199.35 89.0306 198.754 88.8817C198.01 88.5839 197.414 88.5839 196.521 88.7328ZM199.796 94.688L196.074 95.4324L195.628 93.3481C195.479 92.7526 195.479 92.157 195.777 91.7104C196.074 91.2638 196.372 90.966 196.968 90.966C197.563 90.8171 198.01 90.966 198.456 91.2638C198.903 91.5615 199.052 92.0082 199.201 92.7526L199.796 94.688Z" fill="white"/>
<path d="M81.884 109.576V117.615L77.5664 125.655H90.519L86.2015 117.615V111.66L94.241 115.233V126.101L112.851 134.439L131.461 126.101V115.233L148.433 107.64L113 91.561L77.5664 107.64L81.884 109.576ZM127.144 123.273L113.149 129.674L99.154 123.273V117.317L113.149 123.719L127.144 117.317V123.273ZM113 96.4741L137.565 107.64L113 118.806L88.4347 107.64L113 96.4741Z" fill="white"/>
<path d="M162.428 74.1422L160.791 72.0579C160.493 71.7601 160.195 71.3135 159.898 71.0157C159.749 70.718 159.451 70.5691 159.302 70.2713C158.706 69.6758 158.26 69.0803 157.664 68.6336C157.515 68.4848 157.367 68.3359 157.069 68.0381C156.473 67.4426 155.878 66.8471 155.282 66.4004C155.133 66.2516 154.984 66.1027 154.836 66.1027C154.24 65.5072 153.496 64.9116 152.9 64.3161C150.071 61.934 146.945 59.8497 143.67 58.0632C143.372 57.9143 143.074 57.6165 142.627 57.4676C142.181 57.1699 141.585 56.8721 141.139 56.7232C140.692 56.4255 140.245 56.2766 139.799 55.9788C139.352 55.83 138.905 55.5322 138.459 55.3833C137.863 55.0856 137.417 54.9367 136.821 54.6389C136.374 54.49 135.928 54.3412 135.63 54.1923C135.035 53.8945 134.439 53.7456 133.695 53.4479C133.248 53.299 132.95 53.1501 132.504 53.0012C131.759 52.8524 131.164 52.5546 130.419 52.4057C130.121 52.2568 129.675 52.2568 129.377 52.108C128.633 51.9591 127.888 51.6613 127.144 51.5124C126.846 51.3636 126.399 51.3636 126.102 51.2147C125.357 51.0658 124.613 50.9169 123.868 50.768C123.571 50.768 123.273 50.6192 122.826 50.6192C122.082 50.4703 121.338 50.4703 120.593 50.3214C120.295 50.3214 119.849 50.1725 119.551 50.1725C118.807 50.0236 118.062 50.0236 117.318 50.0236C117.02 50.0236 116.573 50.0236 116.276 49.8748C115.382 49.8748 114.489 49.8748 113.596 49.8748C113.447 49.8748 113.149 49.8748 113 49.8748C112.851 49.8748 112.554 49.8748 112.405 49.8748C111.511 49.8748 110.618 49.8748 109.725 49.8748C109.427 49.8748 108.981 49.8748 108.683 50.0236C107.938 50.0236 107.194 50.1725 106.45 50.1725C106.152 50.1725 105.705 50.3214 105.407 50.3214C104.663 50.4703 103.919 50.4703 103.174 50.6192C102.876 50.6192 102.579 50.768 102.132 50.768C101.388 50.9169 100.643 51.0658 99.8988 51.2147C99.601 51.2147 99.3033 51.3636 98.8567 51.5124C98.1123 51.6613 97.3679 51.8102 96.6235 52.108C96.3257 52.2568 95.879 52.2568 95.5813 52.4057C94.8369 52.5546 94.2414 52.8524 93.497 53.0012C93.1992 53.1501 92.7526 53.299 92.4548 53.4479C91.8593 53.7456 91.1149 53.8945 90.5194 54.1923C90.0727 54.3412 89.775 54.49 89.3283 54.6389C88.7328 54.9367 88.1373 55.0856 87.6907 55.3833C87.244 55.5322 86.7974 55.83 86.3507 55.9788C85.9041 56.2766 85.4575 56.4255 84.8619 56.7232C84.4153 57.021 83.8198 57.1699 83.3731 57.4676C83.0754 57.6165 82.6287 57.9143 82.331 58.0632C81.7354 58.3609 81.1399 58.6587 80.5444 59.1053C80.5444 59.1053 80.5444 59.1053 80.3955 59.1053C77.8646 60.5941 75.4825 62.3807 73.2493 64.1672L73.1004 64.3161C72.5049 64.9116 71.7605 65.3583 71.165 65.9538C71.0161 66.1027 70.8672 66.2516 70.7183 66.4004C70.1228 66.996 69.5273 67.4426 69.0806 68.0381C68.9318 68.187 68.634 68.4848 68.4851 68.6336C68.0385 69.2292 67.443 69.6758 66.9963 70.2713C66.6986 70.5691 66.5497 70.718 66.2519 71.0157C65.9542 71.3135 65.6564 71.6113 65.3586 72.0579L63.721 73.9933C55.2348 84.7127 50.1729 98.2608 50.1729 112.851C50.1729 127.441 55.2348 140.989 63.721 151.709L65.3586 153.644C65.6564 153.942 65.9541 154.389 66.4008 154.686C66.5497 154.835 66.6986 155.133 66.9963 155.282C67.5919 155.877 68.0385 156.473 68.634 157.068C68.7829 157.217 68.9318 157.366 69.0806 157.515C69.6762 158.111 70.2717 158.706 70.8672 159.302C71.0161 159.451 71.165 159.451 71.165 159.599C71.7605 160.195 72.5049 160.79 73.2493 161.386C76.078 163.768 79.2045 165.852 82.4799 167.639C82.7776 167.788 83.2242 168.086 83.522 168.234C83.9686 168.532 84.5641 168.681 85.0108 168.979C85.4574 169.277 85.9041 169.425 86.4996 169.723C86.9462 169.872 87.3929 170.17 87.8395 170.319C88.4351 170.617 89.0306 170.765 89.6261 171.063C90.0727 171.212 90.3705 171.361 90.8171 171.51C91.4127 171.808 92.157 171.956 92.7526 172.254C93.0503 172.403 93.497 172.552 93.7947 172.552C94.5392 172.85 95.2835 172.999 95.8791 173.147C96.1768 173.296 96.4746 173.296 96.9212 173.445C97.6656 173.594 98.41 173.892 99.1544 174.041C99.4522 174.041 99.7499 174.19 100.048 174.19C100.792 174.339 101.685 174.487 102.43 174.636C102.728 174.636 103.025 174.785 103.323 174.785C104.067 174.934 104.961 175.083 105.705 175.083C106.003 175.083 106.301 175.232 106.598 175.232C107.492 175.381 108.236 175.381 109.129 175.381C109.427 175.381 109.725 175.381 109.874 175.381C110.916 175.381 112.107 175.53 113.149 175.53C114.34 175.53 115.382 175.53 116.573 175.381C116.871 175.381 117.169 175.381 117.467 175.381C118.36 175.381 119.104 175.232 119.998 175.232C120.295 175.232 120.593 175.083 120.891 175.083C121.635 174.934 122.529 174.934 123.273 174.785C123.571 174.785 123.869 174.636 124.166 174.636C124.911 174.487 125.804 174.339 126.548 174.19C126.846 174.19 127.144 174.041 127.442 174.041C128.186 173.892 128.93 173.743 129.675 173.445C129.973 173.296 130.27 173.296 130.717 173.147C131.461 172.999 132.206 172.701 132.801 172.552C133.099 172.403 133.546 172.254 133.843 172.254C134.439 171.956 135.183 171.808 135.779 171.51C136.226 171.361 136.523 171.212 136.97 171.063C137.565 170.765 138.161 170.617 138.757 170.319C139.203 170.17 139.65 169.872 140.096 169.723C140.543 169.425 140.99 169.277 141.585 168.979C142.032 168.681 142.627 168.532 143.074 168.234C143.372 168.086 143.818 167.788 144.116 167.639C148.136 165.406 152.007 162.726 155.431 159.599C155.58 159.451 155.58 159.451 155.729 159.302C156.324 158.706 156.92 158.111 157.515 157.515C157.664 157.366 157.813 157.217 157.962 157.068C158.558 156.473 159.153 155.877 159.6 155.282C159.749 155.133 159.898 154.984 160.046 154.835C160.344 154.389 160.791 154.091 161.089 153.644L162.726 151.709C171.212 140.989 176.274 127.441 176.274 112.851C175.977 98.2608 170.915 84.8616 162.428 74.1422ZM71.3138 71.909C71.4627 71.7601 71.6116 71.6112 71.7605 71.4624C72.2071 71.0157 72.8026 70.4202 73.3982 69.9736C73.547 69.8247 73.6959 69.6758 73.8448 69.5269C74.4403 69.0803 74.8869 68.6336 75.4825 68.0381C75.6313 67.8892 75.7803 67.7404 75.9291 67.5915C76.5247 67.1448 77.1201 66.6982 77.5668 66.2516C77.7157 66.1027 78.0135 65.9538 78.1623 65.8049C78.7579 65.3583 79.3533 65.0605 79.8 64.6139C80.0977 64.465 80.2466 64.3161 80.5444 64.1672C81.1399 63.8695 81.5866 63.4228 82.1821 63.1251C82.4798 62.9762 82.7776 62.8273 83.0754 62.6784C83.522 62.3807 84.1175 62.0829 84.5642 61.7852C84.8619 61.6363 85.3086 61.3385 85.6063 61.1896C86.053 60.8919 86.4996 60.743 86.9463 60.4452C87.3929 60.1475 87.8395 59.9986 88.2862 59.8497C88.7328 59.7008 89.0305 59.552 89.4772 59.2542C90.0727 58.9564 90.6682 58.8076 91.2638 58.5098C91.5615 58.3609 91.8593 58.212 92.1571 58.212C92.9015 57.9143 93.6459 57.7654 94.2414 57.4676C94.3903 57.4676 94.688 57.3188 94.8369 57.3188C95.4324 57.1699 96.0279 57.021 96.4746 56.8721C90.966 61.7852 86.2018 69.2292 82.7776 78.7575C78.0134 77.2687 73.547 75.4821 69.6762 73.2489C70.5694 72.6534 71.0161 72.3556 71.3138 71.909ZM110.767 54.6389V82.7773C102.728 82.6284 94.8369 81.5862 87.6907 79.7997C93.0503 65.2094 101.537 55.9788 110.767 54.6389ZM115.233 54.6389C124.464 55.9788 132.95 65.2094 138.31 79.7997C131.164 81.5862 123.422 82.6284 115.233 82.7773V54.6389ZM142.627 78.6086C139.203 69.2292 134.439 61.6363 128.93 56.7232C129.526 56.8721 130.121 57.021 130.568 57.1699C130.717 57.1699 131.015 57.3188 131.164 57.3188C131.908 57.6165 132.652 57.7654 133.248 58.0632C133.546 58.212 133.843 58.3609 134.141 58.3609C134.737 58.6587 135.332 58.8076 135.928 59.1053C136.374 59.2542 136.672 59.4031 137.119 59.7008C137.565 59.8497 138.012 60.1475 138.459 60.2964C138.905 60.5941 139.352 60.743 139.948 61.0408C140.245 61.1896 140.692 61.4874 140.99 61.6363C141.585 61.934 142.032 62.2318 142.627 62.5296C142.925 62.6784 143.223 62.8273 143.521 62.9762C144.116 63.274 144.712 63.7206 145.158 64.0184C145.456 64.1672 145.605 64.3161 145.903 64.465C146.498 64.9116 147.094 65.2094 147.689 65.656C147.838 65.8049 147.987 65.9538 148.285 66.1027C148.88 66.5493 149.476 66.996 150.071 67.4426C150.22 67.5915 150.369 67.7404 150.518 67.8892C151.114 68.3359 151.709 68.9314 152.156 69.378C152.305 69.5269 152.454 69.6758 152.602 69.8247C153.198 70.2713 153.645 70.8669 154.24 71.3135C154.389 71.4624 154.538 71.6113 154.687 71.7601C154.984 72.0579 155.431 72.5045 155.729 72.8023C151.709 75.1844 147.392 77.1198 142.627 78.6086ZM67.2941 76.5243C79.0556 83.5217 95.5813 87.3925 113 87.3925C130.27 87.3925 146.796 83.3728 158.706 76.5243C166.746 86.4993 171.51 99.1541 171.51 113C171.51 126.846 166.746 139.501 158.706 149.476C146.945 142.478 130.419 138.607 113 138.607C95.5813 138.607 79.2045 142.627 67.2941 149.476C59.2545 139.501 54.4904 126.846 54.4904 113C54.4904 99.1541 59.2545 86.4993 67.2941 76.5243ZM154.538 154.091C154.389 154.24 154.24 154.389 154.24 154.389C153.645 154.984 153.049 155.431 152.602 156.026C152.454 156.175 152.305 156.324 152.156 156.324C151.56 156.771 150.965 157.366 150.369 157.813C150.22 157.962 150.071 158.111 149.923 158.111C149.327 158.557 148.732 159.004 148.136 159.451C147.987 159.599 147.838 159.748 147.689 159.748C147.094 160.195 146.498 160.642 145.903 161.088C145.754 161.237 145.456 161.386 145.307 161.535C144.712 161.981 144.116 162.279 143.521 162.577C143.223 162.726 142.925 162.875 142.776 163.024C142.181 163.321 141.734 163.619 141.139 163.917C140.841 164.066 140.394 164.215 140.096 164.512C139.65 164.81 139.203 164.959 138.608 165.257C138.161 165.406 137.714 165.703 137.268 165.852C136.821 166.001 136.523 166.15 136.077 166.448C135.481 166.746 134.886 166.895 134.29 167.192C133.992 167.341 133.695 167.49 133.397 167.49C132.652 167.788 131.908 167.937 131.164 168.234C131.015 168.234 130.866 168.383 130.568 168.383C129.973 168.532 129.377 168.681 128.782 168.83C134.29 163.917 139.054 156.473 142.479 146.945C147.243 148.433 151.709 150.369 155.58 152.453C155.282 153.346 154.836 153.644 154.538 154.091ZM94.8369 168.532C94.0925 168.234 93.1992 167.937 92.4548 167.788C92.157 167.639 92.0082 167.639 91.7104 167.49C91.1149 167.192 90.3705 167.043 89.775 166.746C89.4772 166.597 89.0305 166.448 88.7328 166.299C88.2861 166.001 87.6906 165.852 87.244 165.555C86.7973 165.406 86.3507 165.108 85.9041 164.81C85.4574 164.661 85.1597 164.364 84.7131 164.215C84.2664 163.917 83.6709 163.619 83.2243 163.321C82.9265 163.173 82.6287 163.024 82.331 162.726C81.7354 162.428 81.2888 161.981 80.6933 161.684C80.3955 161.535 80.2466 161.386 79.9489 161.237C79.3534 160.79 78.7579 160.493 78.1623 160.046C78.0135 159.897 77.8645 159.748 77.5668 159.599C76.9713 159.153 76.3758 158.706 75.7802 158.259C75.6314 158.111 75.4825 157.962 75.3336 157.962C74.7381 157.515 74.1426 156.92 73.547 156.473C73.3982 156.324 73.2493 156.175 73.1004 156.175C72.5049 155.58 71.9094 155.133 71.4627 154.537C71.3139 154.389 71.3138 154.389 71.165 154.24C70.7183 153.793 70.4206 153.495 69.9739 153.049C73.8448 150.815 78.1623 149.029 82.9265 147.54C86.3507 156.92 91.1149 164.364 96.6235 169.425C96.0279 169.277 95.4324 169.128 94.9858 168.979C95.1347 168.681 94.9858 168.681 94.8369 168.532ZM115.233 171.212V143.074C123.273 143.223 131.164 144.265 138.31 146.051C132.95 160.642 124.464 170.021 115.233 171.212ZM110.618 171.212C101.388 169.872 92.9015 160.642 87.5418 146.051C94.688 144.265 102.43 143.223 110.618 143.074V171.212Z" fill="white"/>
<path d="M113 0C50.7681 0 0 50.6192 0 113C0 175.381 50.6192 226 113 226C175.232 226 226 175.381 226 113C226 50.6192 175.232 0 113 0ZM113 221.385C53.1502 221.385 4.61529 172.701 4.61529 113C4.61529 53.2991 53.1502 4.4664 113 4.4664C172.85 4.4664 221.385 53.1502 221.385 113C221.385 172.85 172.701 221.385 113 221.385Z" fill="white"/>
<path d="M193.842 115.531C193.842 118.36 196.224 120.742 199.053 120.742C201.881 120.742 204.263 118.36 204.263 115.531C204.263 112.702 201.881 110.32 199.053 110.32C196.224 110.32 193.842 112.702 193.842 115.531Z" fill="white"/>
<path d="M21.1411 114.043C21.1411 116.871 23.5232 119.253 26.3519 119.253C29.1806 119.253 31.5627 116.871 31.5627 114.043C31.5627 111.214 29.1806 108.832 26.3519 108.832C23.5232 108.832 21.1411 111.214 21.1411 114.043Z" fill="white"/>
</svg>
