<svg width="96" height="95" viewBox="0 0 96 95" fill="none" xmlns="http://www.w3.org/2000/svg">
<path d="M15.1443 58.0764L13.5171 58.5145L12.9539 56.637L14.581 56.1364L14.3307 55.1976L10.1377 56.3867L10.388 57.388L12.1403 56.8874L12.7036 58.7648L10.9513 59.2655L11.2642 60.2668L15.4572 59.0152L15.1443 58.0764Z" fill="#06467A"/>
<path d="M13.8929 66.2747L17.022 62.6449L16.5839 61.7688L11.8276 61.8939L12.2657 62.8327L13.267 62.7701L14.1432 64.585L13.4548 65.336L13.8929 66.2747ZM14.0806 62.6449L15.8955 62.5823L14.7064 63.8966L14.0806 62.6449Z" fill="#06467A"/>
<path d="M20.5891 68.4651L18.7116 65.7115L17.5851 66.4625C17.0219 66.8379 16.5212 67.0883 16.1457 67.2134C15.7702 67.3386 15.5199 67.276 15.3321 67.0883L15.207 66.9631L13.7676 67.9644L14.2682 68.7154L15.0192 68.2148L16.7715 70.7806L16.0205 71.2813L16.5212 72.0323L17.9606 71.031L17.5851 70.5303L20.5891 68.4651ZM15.958 68.027C16.1457 68.027 16.4586 67.9644 16.7715 67.8393C17.0844 67.7141 17.4599 67.4638 17.898 67.2134L18.4613 66.8379L19.3374 68.0896L17.0844 69.6542L15.958 68.027Z" fill="#06467A"/>
<path d="M22.0286 70.1548L20.7144 71.3439C20.2763 71.7194 19.9008 72.0323 19.5879 72.1574C19.3376 72.2826 19.0873 72.2826 18.8995 72.0949C18.8369 72.0323 18.8369 71.9697 18.7743 71.9697L18.0859 72.5329C18.2111 72.7207 18.2737 72.8458 18.3988 72.971C18.6492 73.2213 18.8995 73.3465 19.1498 73.3465C19.4002 73.3465 19.7131 73.2213 20.0886 73.0336C20.4015 72.8458 20.8396 72.5329 21.2776 72.0949L21.966 71.469L22.9674 72.5329L20.4015 74.9737L21.0899 75.7246L24.2816 72.7207L22.0286 70.1548Z" fill="#06467A"/>
<path d="M26.2214 77.4769L26.7221 76.8511L25.1575 75.5995L25.7208 74.8485L27.5356 76.2879L28.0363 75.6621L25.4704 73.5968L22.7168 77.0389L25.4078 79.1041L25.9085 78.4783L24.031 77.0389L24.6569 76.2253L26.2214 77.4769Z" fill="#06467A"/>
<path d="M34.357 79.2918L33.4182 78.7912L31.6659 79.8551L31.1027 79.5422L31.9789 78.0402L31.1027 77.5395L30.2266 79.1041L29.6633 78.7912V76.726L28.7246 76.2253L28.7871 78.666L26.5342 80.0428L27.5355 80.6061L29.2878 79.5422L29.8511 79.8551L28.9749 81.357L29.8511 81.8577L30.7272 80.2931L31.2904 80.6061V82.6087L32.2918 83.1719L32.2292 80.5435L34.357 79.2918Z" fill="#06467A"/>
<path d="M36.5472 79.9802L33.293 83.4848L34.2943 83.7978L34.9827 83.0468L36.9227 83.6726L36.9853 84.6739L37.9866 84.9868L37.5486 80.2306L36.5472 79.9802ZM35.4834 82.4835L36.6724 81.1067L36.7976 82.9216L35.4834 82.4835Z" fill="#06467A"/>
<path d="M45.9346 81.9829L44.9333 81.8577L44.4326 85.3623L43.1184 85.1746L43.619 81.67L42.6177 81.5448L42.1171 85.0494L40.7402 84.8617L41.2409 81.3571L40.2396 81.2319L39.6138 85.5501L44.9958 86.3011L44.8707 87.1772L45.8094 87.3024L46.0597 85.6127L45.4339 85.4875L45.9346 81.9829Z" fill="#06467A"/>
<path d="M50.691 81.8577L48.751 84.7991L48.6258 81.9829H47.6245L47.8123 86.3636L48.751 86.301L50.691 83.4223L50.8788 86.2385L51.8175 86.1759L51.6298 81.7951L50.691 81.8577Z" fill="#06467A"/>
<path d="M56.8242 80.8564L55.6351 81.1067L55.0093 82.6087L53.8828 81.4822L52.7563 81.67L54.5712 83.4848L53.5073 85.9881L54.6338 85.7378L55.3222 84.1733L56.6364 85.3623L57.7629 85.112L55.8229 83.2345L56.8242 80.8564Z" fill="#06467A"/>
<path d="M60.0781 79.8551L61.8304 83.8603L62.7692 83.4223L61.3298 80.168L63.1447 79.3544L64.5841 82.6087L65.5228 82.2332L63.7079 78.2279L60.0781 79.8551Z" fill="#06467A"/>
<path d="M68.4644 76.2253C68.2141 76.1001 67.9012 76.1001 67.5883 76.1001C67.2753 76.1627 66.9624 76.2879 66.6495 76.4756L65.085 77.477L67.4631 81.1693L68.3393 80.6061L67.7134 79.6047L68.4644 79.1041C68.7773 78.9163 69.0277 78.666 69.2154 78.4157C69.4031 78.1654 69.4657 77.8524 69.4657 77.6021C69.4657 77.2892 69.4031 77.0389 69.2154 76.7885C68.9025 76.5382 68.7147 76.3505 68.4644 76.2253ZM68.3393 77.915C68.2767 78.1028 68.0889 78.2905 67.8386 78.4783L67.1502 78.9163L66.3366 77.6647L67.025 77.2266C67.2753 77.0389 67.5257 76.9763 67.7134 77.0389C67.9012 77.0389 68.0889 77.164 68.2141 77.4144C68.3392 77.5395 68.4018 77.7273 68.3393 77.915Z" fill="#06467A"/>
<path d="M70.0288 73.9723L71.4056 78.5408L72.2192 77.8524L71.9063 76.9137L73.4708 75.5995L74.347 76.0376L75.1606 75.3491L70.8424 73.2839L70.0288 73.9723ZM72.6573 75.224L71.5934 76.1001L71.0301 74.3478L72.6573 75.224Z" fill="#06467A"/>
<path d="M75.5362 68.3399L74.7852 69.1535L75.411 71.1561L74.9104 71.7194L73.5961 70.5929L72.9077 71.3439L76.2246 74.2227L76.913 73.4091L75.5362 72.2826L76.0368 71.7819L78.1021 72.0323L78.853 71.1561L76.162 70.7806L75.5362 68.3399Z" fill="#06467A"/>
<path d="M78.5402 65.2734L77.8518 64.7727L75.7866 67.9644L76.475 68.4025L77.226 67.276L80.1674 69.2161L80.7306 68.4025L77.7893 66.3999L78.5402 65.2734Z" fill="#06467A"/>
<path d="M79.6668 61.0804L81.3565 64.2095L78.7906 63.0204L78.3525 63.8966L82.2952 65.774L82.7333 64.8979L81.0436 61.7688L83.6095 63.0204L84.0475 62.0817L80.1048 60.2668L79.6668 61.0804Z" fill="#06467A"/>
<path d="M81.6694 55.0725L81.419 56.0738L82.7333 57.7009L82.5455 58.3893L80.8558 57.8887L80.6055 58.8274L84.7985 60.0791L85.0488 59.0777L83.3591 58.6397L83.5468 57.9513L85.5495 57.3254L85.925 56.2615L83.2965 57.0125L81.6694 55.0725Z" fill="#06467A"/>
<path d="M15.3947 38.3004L14.6437 38.1752L14.143 40.4908L13.1417 40.2404L13.5798 38.3004L12.7662 38.1126L12.3907 40.1153L11.452 39.9275L11.8901 37.6746L11.1391 37.4868L10.4507 40.7411L14.7063 41.6173L15.3947 38.3004Z" fill="#06467A"/>
<path d="M16.396 35.2964C16.5837 34.7958 16.6463 34.3577 16.5212 33.9822C16.396 33.6067 16.2082 33.419 15.8327 33.2312C15.5824 33.1686 15.3321 33.1061 15.1443 33.2312C14.9566 33.2938 14.7688 33.4816 14.5811 33.6693C14.5811 33.4816 14.5185 33.2938 14.3934 33.1061C14.2682 32.9183 14.143 32.8557 13.8927 32.7306C13.5798 32.6054 13.2669 32.668 12.954 32.8557C12.7036 33.0435 12.4533 33.419 12.2656 33.857L11.5771 35.7971L15.7076 37.2991L16.396 35.2964ZM13.9553 34.608L13.6424 35.4842L12.6411 35.1087L12.954 34.2325C13.0165 34.0448 13.1417 33.9196 13.2669 33.7945C13.392 33.7319 13.5172 33.7319 13.705 33.7945C13.8927 33.857 13.9553 33.9822 14.0179 34.1074C14.0179 34.2325 14.0179 34.4203 13.9553 34.608ZM14.2682 35.7345L14.6437 34.6706C14.8314 34.2325 15.0818 34.0448 15.3947 34.17C15.7702 34.2951 15.8328 34.608 15.7076 35.0461L15.3321 36.11L14.2682 35.7345Z" fill="#06467A"/>
<path d="M17.8978 31.8544L16.8339 31.2912L17.2719 30.5402C17.4597 30.2273 17.5849 29.8518 17.5849 29.5389C17.5849 29.226 17.5223 28.9756 17.3971 28.7253C17.2719 28.475 17.0216 28.2872 16.7713 28.0995C16.4584 27.9743 16.208 27.9117 15.8951 27.9117C15.5822 27.9117 15.3319 28.0369 15.0816 28.2246C14.8312 28.4124 14.6435 28.6627 14.4557 29.0382L13.5796 30.7279L17.4597 32.7931L17.8978 31.8544ZM16.521 30.2273L16.1455 30.9783L14.8312 30.2899L15.2067 29.5389C15.3319 29.2885 15.5196 29.1008 15.7074 29.0382C15.8951 28.9756 16.0829 28.9756 16.3332 29.1008C16.521 29.226 16.6461 29.3511 16.7087 29.6014C16.7087 29.7266 16.6461 29.9144 16.521 30.2273Z" fill="#06467A"/>
<path d="M19.9004 28.4124L19.3997 27.5362L20.5888 25.9091L21.5901 26.1594L22.2159 25.2833L17.5222 24.2819L16.959 25.0955L19.3371 29.226L19.9004 28.4124ZM17.9603 25.2833L19.7126 25.7213L18.899 26.8478L17.9603 25.2833Z" fill="#06467A"/>
<path d="M20.5888 21.7787C20.714 21.5909 20.8391 21.4657 20.9643 21.278C21.152 21.0902 21.3398 20.9651 21.5275 20.9025C21.7153 20.8399 21.8404 20.9025 21.9656 21.0277C22.0908 21.1528 22.0908 21.278 22.0908 21.4032C22.0908 21.5283 21.9656 21.7161 21.8404 21.8412L21.152 22.5296L21.7153 23.0303L22.4663 22.2793C22.654 22.0916 22.7792 22.029 22.9669 21.9664C23.0921 21.9038 23.2798 21.9664 23.3424 22.0916C23.4676 22.2167 23.5302 22.4045 23.4676 22.5922C23.405 22.78 23.2798 23.0303 23.0921 23.218C22.9669 23.4058 22.7792 23.531 22.5288 23.6561C22.3411 23.7813 22.0908 23.8439 21.903 23.9065L22.2159 24.6574C22.5288 24.5949 22.7792 24.4697 23.0295 24.2819C23.2798 24.0942 23.5302 23.9065 23.7179 23.7187C23.9682 23.4684 24.156 23.218 24.2812 22.9051C24.4063 22.5922 24.4689 22.3419 24.4689 22.0916C24.4689 21.8412 24.3437 21.5909 24.156 21.4032C23.9682 21.2154 23.7805 21.1528 23.5302 21.0902C23.2798 21.0902 23.0295 21.0903 22.8418 21.2154C22.9043 21.0277 22.9043 20.8399 22.9043 20.6522C22.8418 20.4644 22.7792 20.2767 22.5914 20.1515C22.4037 19.9638 22.2159 19.9012 21.903 19.9012C21.6527 19.9012 21.4024 19.9638 21.0895 20.0889C20.8391 20.2141 20.5888 20.4018 20.3385 20.6522C19.963 21.0277 19.7126 21.4657 19.5249 21.9664L20.2759 22.2793C20.4011 22.1541 20.5262 21.9664 20.5888 21.7787Z" fill="#06467A"/>
<path d="M26.5343 21.0903L26.4092 17.5856L28.1614 19.776L28.9124 19.2128L26.284 15.7082L25.533 16.334L25.5956 19.8386L23.8433 17.5856L23.0923 18.2115L25.7207 21.6535L26.5343 21.0903Z" fill="#06467A"/>
<path d="M29.5381 13.4552C29.9136 13.2675 30.1014 13.0171 30.2265 12.8294C30.3517 12.5791 30.2891 12.3287 30.1639 12.0784L29.5381 12.3913C29.6007 12.5165 29.6007 12.6416 29.6007 12.7668C29.5381 12.892 29.4755 12.9545 29.3503 13.0797C29.0374 13.2675 28.8497 13.2049 28.662 12.9545L28.0361 13.2675C28.349 13.7055 28.8497 13.8307 29.5381 13.4552Z" fill="#06467A"/>
<path d="M30.8525 18.0237L31.2906 14.5191L32.6674 17.0224L33.5435 16.5217L31.4783 12.7042L30.6022 13.1423L30.1641 16.6469L28.7873 14.1436L27.9111 14.6443L30.0389 18.4618L30.8525 18.0237Z" fill="#06467A"/>
<path d="M34.4194 15.0198C34.7323 15.2701 35.1078 15.3953 35.4833 15.4578C35.8588 15.5204 36.2969 15.4578 36.735 15.3327C37.1105 15.2075 37.3608 15.0198 37.6111 14.7694C37.8615 14.5191 38.0492 14.2688 38.1118 13.9559L37.2982 13.643C37.1105 14.081 36.8602 14.3314 36.4221 14.5191C36.1717 14.5817 35.9214 14.6443 35.6711 14.5817C35.4208 14.5191 35.233 14.4565 35.0453 14.2688C34.8575 14.081 34.7324 13.8933 34.6072 13.643C34.482 13.3926 34.482 13.1423 34.5446 12.892C34.6072 12.6416 34.6698 12.4539 34.8575 12.2661C35.0453 12.0784 35.233 11.9532 35.4833 11.8281C35.9214 11.7029 36.2969 11.7029 36.6724 11.9532L37.0479 11.1397C36.7976 10.9519 36.4847 10.8893 36.1092 10.8893C35.7963 10.8893 35.4208 10.9519 35.1078 11.0771C34.6698 11.2022 34.3568 11.4526 34.0439 11.7655C33.7936 12.0784 33.6059 12.3913 33.5433 12.8294C33.4807 13.2049 33.4807 13.643 33.6685 14.0184C33.8562 14.4565 34.1065 14.7694 34.4194 15.0198Z" fill="#06467A"/>
<path d="M40.2399 14.2688L39.8644 12.5165L40.5528 12.3913L41.9922 13.8933L43.1186 13.643L41.2412 11.7029L42.1799 9.38735L41.116 9.5751L40.365 11.5777L39.6766 11.7029L39.3011 9.95059L38.2998 10.2009L39.2385 14.4565L40.2399 14.2688Z" fill="#06467A"/>
<path d="M44.6205 12.5791L46.6231 12.4539L47.0612 13.3926L48.1251 13.33L45.8721 9.07444L44.8708 9.13702L43.2437 13.643L44.3076 13.5804L44.6205 12.5791ZM45.4966 10.0758L46.3102 11.7029L44.9334 11.7655L45.4966 10.0758Z" fill="#06467A"/>
<path d="M49.5018 13.3926L50.378 12.2661L51.3167 12.3287L51.2541 13.4552L52.2554 13.5178L52.5683 9.13702L50.6909 9.01186C50.3154 9.01186 49.9399 9.01186 49.6895 9.13702C49.4392 9.26219 49.1889 9.38735 49.0012 9.63768C48.8134 9.88801 48.7508 10.1383 48.6882 10.5138C48.6882 10.8267 48.7508 11.1397 48.876 11.39C49.0012 11.6403 49.2515 11.8281 49.5018 12.0158L48.5005 13.2675L49.5018 13.3926ZM49.9399 10.0758C50.1276 9.95059 50.3154 9.88801 50.6283 9.95059L51.5045 10.0132L51.3793 11.5777L50.5031 11.5152C50.1902 11.5152 50.0025 11.39 49.8773 11.2648C49.7521 11.1397 49.6895 10.8893 49.6895 10.639C49.6895 10.3887 49.7521 10.2009 49.9399 10.0758Z" fill="#06467A"/>
<path d="M56.6988 13.5178L58.6389 14.081L58.764 15.0823L59.7654 15.3953L59.1395 10.639L58.2008 10.3887L55.1343 14.0184L56.1356 14.3314L56.6988 13.5178ZM58.326 11.4526L58.5137 13.2675L57.1995 12.892L58.326 11.4526Z" fill="#06467A"/>
<path d="M62.0812 14.5191L62.7697 14.832L63.02 16.8972L64.0839 17.3979L63.7084 14.7069L65.8988 13.3926L64.8975 12.9545L63.1451 14.081L62.4567 13.7681L63.2077 12.141L62.269 11.7029L60.4541 15.7082L61.3928 16.1462L62.0812 14.5191Z" fill="#06467A"/>
<path d="M65.0851 17.9611L65.8987 17.3979L67.5884 18.5244L67.4007 19.5257L68.2768 20.0889L69.0278 15.3327L68.2143 14.7694L64.209 17.3979L65.0851 17.9611ZM68.0891 15.8959L67.7762 17.6482L66.5871 16.8972L68.0891 15.8959Z" fill="#06467A"/>
<path d="M68.7149 21.5909L69.3407 20.9025L71.6562 22.9677L71.0304 23.6561L71.7188 24.282L72.8453 22.9677L72.4072 22.5296L74.7853 19.9012L72.282 17.6482L71.3433 18.6495C70.8427 19.1502 70.4672 19.5257 70.0917 19.7134C69.7788 19.9012 69.4658 19.9638 69.2781 19.776L69.1529 19.6509L67.9639 20.9025L68.7149 21.5909ZM70.9678 20.2767C71.2807 20.0889 71.5936 19.776 71.9691 19.4005L72.4072 18.9625L73.5337 19.9638L71.7188 21.9664L70.2794 20.6522C70.4046 20.5896 70.6549 20.4644 70.9678 20.2767Z" fill="#06467A"/>
<path d="M75.0356 26.9104L75.6614 26.4098L74.1594 24.5323L74.9104 23.9065L76.2247 25.471L76.8505 24.9704L75.5363 23.4058L76.2247 22.78L77.7266 24.5323L78.3525 24.0316L76.2247 21.5283L72.8452 24.2819L75.0356 26.9104Z" fill="#06467A"/>
<path d="M76.1623 28.5375L78.3527 27.2233L77.2262 29.4137L77.4139 29.7892H79.9172L77.7268 31.1034L78.1649 31.917L81.9199 29.664L81.4818 28.9756H78.3527L79.8546 26.1594L79.4166 25.471L75.6616 27.724L76.1623 28.5375Z" fill="#06467A"/>
<path d="M79.0409 33.9822L82.483 34.9209L79.7919 35.9223L80.1674 36.861L84.2353 35.2964L83.9224 34.4203L80.4803 33.4816L83.1714 32.4802L82.7959 31.5415L78.728 33.1061L79.0409 33.9822Z" fill="#06467A"/>
<path d="M83.1085 37.2991C82.7956 37.3617 82.4827 37.4868 82.295 37.7372C82.1072 37.9249 81.982 38.1752 81.9195 38.4881L80.4175 37.8623L80.6678 38.9262L81.982 39.4269L82.1698 40.303L81.0433 40.5534L81.2311 41.5547L85.4867 40.6159L85.1112 38.8011C85.0486 38.4256 84.9234 38.1127 84.7357 37.8623C84.5479 37.612 84.2976 37.4242 84.0473 37.3617C83.7344 37.2365 83.484 37.2365 83.1085 37.2991ZM84.4853 39.8024L82.9208 40.1153L82.733 39.2391C82.6705 38.9888 82.6705 38.7385 82.7956 38.5507C82.9208 38.363 83.0459 38.2378 83.2963 38.2378C83.5466 38.1752 83.7343 38.2378 83.9221 38.363C84.1098 38.4881 84.1724 38.6759 84.235 38.9888L84.4853 39.8024Z" fill="#06467A"/>
<path d="M34.9204 46.0606V49.4401L33.1055 52.8195H38.5501L36.7353 49.4401V46.9368L40.1147 48.4387V53.0072L47.9375 56.5119L55.7603 53.0072V48.4387L62.8947 45.247L48.0001 38.4881L33.1055 45.247L34.9204 46.0606ZM53.9454 51.8182L48.0627 54.5092L42.1799 51.8182V49.3149L48.0627 52.0059L53.9454 49.3149V51.8182ZM48.0001 40.5534L58.3262 45.247L48.0001 49.9407L37.674 45.247L48.0001 40.5534Z" fill="#06467A"/>
<path d="M68.7774 31.166L68.089 30.2899C67.9639 30.1647 67.8387 29.9769 67.7135 29.8518C67.6509 29.7266 67.5258 29.664 67.4632 29.5389C67.2129 29.2885 67.0251 29.0382 66.7748 28.8505C66.7122 28.7879 66.6496 28.7253 66.5245 28.6001C66.2741 28.3498 66.0238 28.0995 65.7735 27.9117C65.7109 27.8491 65.6483 27.7866 65.5857 27.7866C65.3354 27.5362 65.0225 27.2859 64.7721 27.0356C63.5831 26.0343 62.2689 25.1581 60.8921 24.4071C60.7669 24.3445 60.6417 24.2194 60.454 24.1568C60.2662 24.0316 60.0159 23.9065 59.8281 23.8439C59.6404 23.7187 59.4527 23.6561 59.2649 23.531C59.0772 23.4684 58.8894 23.3432 58.7017 23.2806C58.4513 23.1555 58.2636 23.0929 58.0133 22.9677C57.8255 22.9051 57.6378 22.8426 57.5126 22.78C57.2623 22.6548 57.0119 22.5922 56.699 22.4671C56.5113 22.4045 56.3861 22.3419 56.1984 22.2793C55.8855 22.2167 55.6351 22.0916 55.3222 22.029C55.197 21.9664 55.0093 21.9664 54.8841 21.9038C54.5712 21.8412 54.2583 21.7161 53.9454 21.6535C53.8202 21.5909 53.6325 21.5909 53.5073 21.5283C53.1944 21.4657 52.8815 21.4032 52.5686 21.3406C52.4434 21.3406 52.3183 21.278 52.1305 21.278C51.8176 21.2154 51.5047 21.2154 51.1918 21.1528C51.0666 21.1528 50.8789 21.0903 50.7537 21.0903C50.4408 21.0277 50.1279 21.0277 49.815 21.0277C49.6898 21.0277 49.5021 21.0277 49.3769 20.9651C49.0014 20.9651 48.6259 20.9651 48.2504 20.9651C48.1878 20.9651 48.0627 20.9651 48.0001 20.9651C47.9375 20.9651 47.8123 20.9651 47.7498 20.9651C47.3743 20.9651 46.9988 20.9651 46.6233 20.9651C46.4981 20.9651 46.3104 20.9651 46.1852 21.0277C45.8723 21.0277 45.5594 21.0903 45.2465 21.0903C45.1213 21.0903 44.9335 21.1528 44.8084 21.1528C44.4955 21.2154 44.1826 21.2154 43.8696 21.278C43.7445 21.278 43.6193 21.3406 43.4316 21.3406C43.1187 21.4032 42.8057 21.4657 42.4928 21.5283C42.3677 21.5283 42.2425 21.5909 42.0548 21.6535C41.7419 21.7161 41.4289 21.7787 41.116 21.9038C40.9909 21.9664 40.8031 21.9664 40.6779 22.029C40.365 22.0916 40.1147 22.2167 39.8018 22.2793C39.6766 22.3419 39.4889 22.4045 39.3637 22.4671C39.1134 22.5922 38.8005 22.6548 38.5502 22.78C38.3624 22.8426 38.2372 22.9051 38.0495 22.9677C37.7992 23.0929 37.5488 23.1555 37.3611 23.2806C37.1733 23.3432 36.9856 23.4684 36.7979 23.531C36.6101 23.6561 36.4224 23.7187 36.172 23.8439C35.9843 23.969 35.734 24.0316 35.5462 24.1568C35.421 24.2194 35.2333 24.3445 35.1081 24.4071C34.8578 24.5323 34.6075 24.6574 34.3571 24.8452C34.3571 24.8452 34.3571 24.8452 34.2946 24.8452C33.2307 25.471 32.2293 26.222 31.2906 26.973L31.228 27.0356C30.9777 27.2859 30.6648 27.4737 30.4144 27.724C30.3519 27.7866 30.2893 27.8491 30.2267 27.9117C29.9764 28.1621 29.726 28.3498 29.5383 28.6001C29.4757 28.6627 29.3506 28.7879 29.288 28.8505C29.1002 29.1008 28.8499 29.2885 28.6621 29.5389C28.537 29.664 28.4744 29.7266 28.3492 29.8518C28.2241 29.9769 28.0989 30.1021 27.9737 30.2899L27.2853 31.1034C23.7181 35.6094 21.5903 41.3044 21.5903 47.4374C21.5903 53.5705 23.7181 59.2655 27.2853 63.7714L27.9737 64.585C28.0989 64.7101 28.2241 64.8979 28.4118 65.0231C28.4744 65.0856 28.537 65.2108 28.6621 65.2734C28.9125 65.5237 29.1002 65.774 29.3505 66.0244C29.4131 66.087 29.4757 66.1495 29.5383 66.2121C29.7886 66.4625 30.0389 66.7128 30.2893 66.9631C30.3519 67.0257 30.4144 67.0257 30.4144 67.0883C30.6648 67.3386 30.9777 67.5889 31.2906 67.8393C32.4797 68.8406 33.7939 69.7167 35.1707 70.4677C35.2959 70.5303 35.4836 70.6555 35.6088 70.7181C35.7965 70.8432 36.0468 70.9058 36.2346 71.031C36.4223 71.1561 36.6101 71.2187 36.8604 71.3439C37.0482 71.4065 37.2359 71.5316 37.4237 71.5942C37.674 71.7194 37.9243 71.782 38.1747 71.9071C38.3624 71.9697 38.4876 72.0323 38.6753 72.0949C38.9257 72.22 39.2386 72.2826 39.4889 72.4078C39.6141 72.4704 39.8018 72.5329 39.927 72.5329C40.2399 72.6581 40.5528 72.7207 40.8031 72.7833C40.9283 72.8459 41.0534 72.8459 41.2412 72.9084C41.5541 72.971 41.867 73.0962 42.1799 73.1588C42.3051 73.1588 42.4303 73.2213 42.5554 73.2213C42.8683 73.2839 43.2438 73.3465 43.5567 73.4091C43.6819 73.4091 43.8071 73.4717 43.9322 73.4717C44.2451 73.5343 44.6206 73.5968 44.9336 73.5968C45.0587 73.5968 45.1839 73.6594 45.309 73.6594C45.6845 73.722 45.9974 73.722 46.3729 73.722C46.4981 73.722 46.6233 73.722 46.6859 73.722C47.1239 73.722 47.6246 73.7846 48.0627 73.7846C48.5633 73.7846 49.0014 73.7846 49.5021 73.722C49.6272 73.722 49.7524 73.722 49.8776 73.722C50.2531 73.722 50.566 73.6594 50.9414 73.6594C51.0666 73.6594 51.1918 73.5968 51.3169 73.5968C51.6299 73.5343 52.0054 73.5343 52.3183 73.4717C52.4434 73.4717 52.5686 73.4091 52.6938 73.4091C53.0067 73.3465 53.3822 73.2839 53.6951 73.2213C53.8203 73.2213 53.9454 73.1588 54.0706 73.1588C54.3835 73.0962 54.6964 73.0336 55.0093 72.9084C55.1345 72.8459 55.2596 72.8459 55.4474 72.7833C55.7603 72.7207 56.0732 72.5955 56.3235 72.5329C56.4487 72.4704 56.6365 72.4078 56.7616 72.4078C57.0119 72.2826 57.3249 72.22 57.5752 72.0949C57.7629 72.0323 57.8881 71.9697 58.0759 71.9071C58.3262 71.782 58.5765 71.7194 58.8268 71.5942C59.0146 71.5316 59.2023 71.4065 59.3901 71.3439C59.5778 71.2187 59.7656 71.1561 60.0159 71.031C60.2036 70.9058 60.454 70.8432 60.6417 70.7181C60.7669 70.6555 60.9546 70.5303 61.0798 70.4677C62.7695 69.529 64.3967 68.4025 65.8361 67.0883C65.8986 67.0257 65.8986 67.0257 65.9612 66.9631C66.2115 66.7128 66.4619 66.4625 66.7122 66.2121C66.7748 66.1495 66.8374 66.087 66.8999 66.0244C67.1503 65.774 67.4006 65.5237 67.5884 65.2734C67.6509 65.2108 67.7135 65.1482 67.7761 65.0856C67.9013 64.8979 68.089 64.7727 68.2142 64.585L68.9026 63.7714C72.4698 59.2655 74.5976 53.5705 74.5976 47.4374C74.4724 41.3044 72.3446 35.6719 68.7774 31.166ZM30.477 30.2273C30.5396 30.1647 30.6022 30.1021 30.6648 30.0395C30.8525 29.8518 31.1029 29.6015 31.3532 29.4137C31.4158 29.3511 31.4783 29.2885 31.5409 29.226C31.7913 29.0382 31.979 28.8505 32.2293 28.6001C32.2919 28.5376 32.3545 28.475 32.4171 28.4124C32.6674 28.2246 32.9177 28.0369 33.1055 27.8491C33.1681 27.7866 33.2932 27.724 33.3558 27.6614C33.6062 27.4737 33.8565 27.3485 34.0442 27.1607C34.1694 27.0982 34.232 27.0356 34.3571 26.973C34.6075 26.8478 34.7952 26.6601 35.0455 26.5349C35.1707 26.4723 35.2959 26.4098 35.421 26.3472C35.6088 26.222 35.8591 26.0968 36.0469 25.9717C36.172 25.9091 36.3598 25.7839 36.4849 25.7213C36.6727 25.5962 36.8604 25.5336 37.0482 25.4084C37.2359 25.2833 37.4237 25.2207 37.6114 25.1581C37.7992 25.0955 37.9243 25.0329 38.1121 24.9078C38.3624 24.7826 38.6127 24.72 38.8631 24.5949C38.9882 24.5323 39.1134 24.4697 39.2386 24.4697C39.5515 24.3445 39.8644 24.282 40.1147 24.1568C40.1773 24.1568 40.3025 24.0942 40.365 24.0942C40.6154 24.0316 40.8657 23.969 41.0534 23.9065C38.7379 25.9717 36.7353 29.1008 35.2959 33.1061C33.2932 32.4802 31.4158 31.7293 29.7886 30.7905C30.1641 30.5402 30.3519 30.415 30.477 30.2273ZM47.0614 22.9677V34.7958C43.6819 34.7332 40.365 34.2951 37.3611 33.5441C39.6141 27.4111 43.1812 23.531 47.0614 22.9677ZM48.9388 22.9677C52.8189 23.531 56.3861 27.4111 58.6391 33.5441C55.6351 34.2951 52.3809 34.7332 48.9388 34.7958V22.9677ZM60.454 33.0435C59.0146 29.1008 57.0119 25.9091 54.6964 23.8439C54.9467 23.9065 55.1971 23.969 55.3848 24.0316C55.4474 24.0316 55.5725 24.0942 55.6351 24.0942C55.948 24.2194 56.261 24.282 56.5113 24.4071C56.6365 24.4697 56.7616 24.5323 56.8868 24.5323C57.1371 24.6574 57.3874 24.72 57.6378 24.8452C57.8255 24.9078 57.9507 24.9704 58.1384 25.0955C58.3262 25.1581 58.5139 25.2833 58.7017 25.3459C58.8894 25.471 59.0772 25.5336 59.3275 25.6588C59.4527 25.7213 59.6404 25.8465 59.7656 25.9091C60.0159 26.0343 60.2036 26.1594 60.454 26.2846C60.5791 26.3472 60.7043 26.4098 60.8295 26.4723C61.0798 26.5975 61.3301 26.7852 61.5179 26.9104C61.643 26.973 61.7056 27.0356 61.8308 27.0982C62.0811 27.2859 62.3314 27.4111 62.5818 27.5988C62.6443 27.6614 62.7069 27.724 62.8321 27.7866C63.0824 27.9743 63.3328 28.1621 63.5831 28.3498C63.6457 28.4124 63.7082 28.475 63.7708 28.5376C64.0212 28.7253 64.2715 28.9756 64.4592 29.1634C64.5218 29.226 64.5844 29.2885 64.647 29.3511C64.8973 29.5389 65.0851 29.7892 65.3354 29.9769C65.398 30.0395 65.4606 30.1021 65.5231 30.1647C65.6483 30.2899 65.836 30.4776 65.9612 30.6028C64.2715 31.6041 62.4566 32.4177 60.454 33.0435ZM28.7873 32.1673C33.7313 35.1087 40.678 36.7358 48.0001 36.7358C55.2596 36.7358 62.2063 35.0461 67.2129 32.1673C70.5923 36.3603 72.5949 41.6798 72.5949 47.5C72.5949 53.3202 70.5923 58.6397 67.2129 62.8327C62.2689 59.8913 55.3222 58.2642 48.0001 58.2642C40.678 58.2642 33.7939 59.9539 28.7873 62.8327C25.4079 58.6397 23.4052 53.3202 23.4052 47.5C23.4052 41.6798 25.4079 36.3603 28.7873 32.1673ZM65.4606 64.7727C65.398 64.8353 65.3354 64.8979 65.3354 64.8979C65.0851 65.1482 64.8347 65.336 64.647 65.5863C64.5844 65.6489 64.5218 65.7115 64.4592 65.7115C64.2089 65.8992 63.9586 66.1495 63.7083 66.3373C63.6457 66.3999 63.5831 66.4624 63.5205 66.4624C63.2702 66.6502 63.0199 66.8379 62.7695 67.0257C62.7069 67.0883 62.6443 67.1509 62.5818 67.1509C62.3314 67.3386 62.0811 67.5263 61.8308 67.7141C61.7682 67.7767 61.643 67.8393 61.5804 67.9018C61.3301 68.0896 61.0798 68.2148 60.8295 68.3399C60.7043 68.4025 60.5791 68.4651 60.5166 68.5277C60.2662 68.6528 60.0785 68.778 59.8281 68.9032C59.703 68.9657 59.5152 69.0283 59.3901 69.1535C59.2023 69.2787 59.0146 69.3412 58.7642 69.4664C58.5765 69.529 58.3888 69.6542 58.201 69.7167C58.0133 69.7793 57.8881 69.8419 57.7004 69.9671C57.45 70.0922 57.1997 70.1548 56.9494 70.28C56.8242 70.3426 56.699 70.4051 56.5739 70.4051C56.2609 70.5303 55.948 70.5929 55.6351 70.7181C55.5725 70.7181 55.51 70.7806 55.3848 70.7806C55.1345 70.8432 54.8842 70.9058 54.6338 70.9684C56.9494 68.9032 58.952 65.774 60.3914 61.7688C62.394 62.3946 64.2715 63.2082 65.8986 64.0843C65.7735 64.4598 65.5857 64.585 65.4606 64.7727ZM40.365 70.8432C40.0521 70.718 39.6766 70.5929 39.3637 70.5303C39.2385 70.4677 39.176 70.4677 39.0508 70.4051C38.8005 70.28 38.4876 70.2174 38.2372 70.0922C38.1121 70.0296 37.9243 69.9671 37.7992 69.9045C37.6114 69.7793 37.3611 69.7167 37.1733 69.5916C36.9856 69.529 36.7978 69.4038 36.6101 69.2787C36.4223 69.2161 36.2972 69.0909 36.1094 69.0283C35.9217 68.9032 35.6714 68.778 35.4836 68.6528C35.3585 68.5902 35.2333 68.5277 35.1081 68.4025C34.8578 68.2773 34.67 68.0896 34.4197 67.9644C34.2945 67.9018 34.232 67.8393 34.1068 67.7767C33.8565 67.5889 33.6062 67.4638 33.3558 67.276C33.2932 67.2134 33.2306 67.1509 33.1055 67.0883C32.8552 66.9005 32.6048 66.7128 32.3545 66.525C32.2919 66.4625 32.2293 66.3999 32.1667 66.3999C31.9164 66.2121 31.6661 65.9618 31.4158 65.774C31.3532 65.7115 31.2906 65.6489 31.228 65.6489C30.9777 65.3986 30.7274 65.2108 30.5396 64.9605C30.477 64.8979 30.477 64.8979 30.4144 64.8353C30.2267 64.6476 30.1015 64.5224 29.9138 64.3347C31.5409 63.3959 33.3558 62.6449 35.3584 62.0191C36.7978 65.9618 38.8005 69.0909 41.116 71.2187C40.8657 71.1561 40.6154 71.0935 40.4276 71.031C40.4902 70.9058 40.4276 70.9058 40.365 70.8432ZM48.9388 71.9697V60.1416C52.3183 60.2042 55.6351 60.6423 58.6391 61.3933C56.3861 67.5264 52.8189 71.469 48.9388 71.9697ZM46.9988 71.9697C43.1187 71.4065 39.5515 67.5264 37.2985 61.3933C40.3025 60.6423 43.5567 60.2042 46.9988 60.1416V71.9697Z" fill="#06467A"/>
<path d="M48 0C21.8406 0 0.5 21.278 0.5 47.5C0.5 73.722 21.778 95 48 95C74.1594 95 95.5 73.722 95.5 47.5C95.5 21.278 74.1594 0 48 0ZM48 93.0599C22.8419 93.0599 2.44006 72.5955 2.44006 47.5C2.44006 22.4045 22.8419 1.87747 48 1.87747C73.1581 1.87747 93.5599 22.3419 93.5599 47.5C93.5599 72.6581 73.0955 93.0599 48 93.0599Z" fill="#06467A"/>
<path d="M81.9824 48.5639C81.9824 49.753 82.9837 50.7543 84.1728 50.7543C85.3619 50.7543 86.3632 49.753 86.3632 48.5639C86.3632 47.3748 85.3619 46.3735 84.1728 46.3735C82.9837 46.3735 81.9824 47.3748 81.9824 48.5639Z" fill="#06467A"/>
<path d="M9.38672 47.9381C9.38672 49.1271 10.388 50.1285 11.5771 50.1285C12.7662 50.1285 13.7675 49.1271 13.7675 47.9381C13.7675 46.749 12.7662 45.7477 11.5771 45.7477C10.388 45.7477 9.38672 46.749 9.38672 47.9381Z" fill="#06467A"/>
</svg>
